G75*
G70*
%OFA0B0*%
%FSLAX24Y24*%
%IPPOS*%
%LPD*%
%AMOC8*
5,1,8,0,0,1.08239X$1,22.5*
%
%ADD10C,0.0000*%
%ADD11C,0.1300*%
%ADD12R,0.0434X0.0473*%
%ADD13R,0.0473X0.0434*%
%ADD14R,0.0631X0.0552*%
%ADD15C,0.0640*%
%ADD16OC8,0.0640*%
D10*
X003295Y003295D02*
X022980Y003295D01*
X022980Y022980D01*
X003295Y022980D01*
X003295Y003295D01*
X003846Y004476D02*
X003848Y004526D01*
X003854Y004576D01*
X003864Y004625D01*
X003878Y004673D01*
X003895Y004720D01*
X003916Y004765D01*
X003941Y004809D01*
X003969Y004850D01*
X004001Y004889D01*
X004035Y004926D01*
X004072Y004960D01*
X004112Y004990D01*
X004154Y005017D01*
X004198Y005041D01*
X004244Y005062D01*
X004291Y005078D01*
X004339Y005091D01*
X004389Y005100D01*
X004438Y005105D01*
X004489Y005106D01*
X004539Y005103D01*
X004588Y005096D01*
X004637Y005085D01*
X004685Y005070D01*
X004731Y005052D01*
X004776Y005030D01*
X004819Y005004D01*
X004860Y004975D01*
X004899Y004943D01*
X004935Y004908D01*
X004967Y004870D01*
X004997Y004830D01*
X005024Y004787D01*
X005047Y004743D01*
X005066Y004697D01*
X005082Y004649D01*
X005094Y004600D01*
X005102Y004551D01*
X005106Y004501D01*
X005106Y004451D01*
X005102Y004401D01*
X005094Y004352D01*
X005082Y004303D01*
X005066Y004255D01*
X005047Y004209D01*
X005024Y004165D01*
X004997Y004122D01*
X004967Y004082D01*
X004935Y004044D01*
X004899Y004009D01*
X004860Y003977D01*
X004819Y003948D01*
X004776Y003922D01*
X004731Y003900D01*
X004685Y003882D01*
X004637Y003867D01*
X004588Y003856D01*
X004539Y003849D01*
X004489Y003846D01*
X004438Y003847D01*
X004389Y003852D01*
X004339Y003861D01*
X004291Y003874D01*
X004244Y003890D01*
X004198Y003911D01*
X004154Y003935D01*
X004112Y003962D01*
X004072Y003992D01*
X004035Y004026D01*
X004001Y004063D01*
X003969Y004102D01*
X003941Y004143D01*
X003916Y004187D01*
X003895Y004232D01*
X003878Y004279D01*
X003864Y004327D01*
X003854Y004376D01*
X003848Y004426D01*
X003846Y004476D01*
X003846Y021799D02*
X003848Y021849D01*
X003854Y021899D01*
X003864Y021948D01*
X003878Y021996D01*
X003895Y022043D01*
X003916Y022088D01*
X003941Y022132D01*
X003969Y022173D01*
X004001Y022212D01*
X004035Y022249D01*
X004072Y022283D01*
X004112Y022313D01*
X004154Y022340D01*
X004198Y022364D01*
X004244Y022385D01*
X004291Y022401D01*
X004339Y022414D01*
X004389Y022423D01*
X004438Y022428D01*
X004489Y022429D01*
X004539Y022426D01*
X004588Y022419D01*
X004637Y022408D01*
X004685Y022393D01*
X004731Y022375D01*
X004776Y022353D01*
X004819Y022327D01*
X004860Y022298D01*
X004899Y022266D01*
X004935Y022231D01*
X004967Y022193D01*
X004997Y022153D01*
X005024Y022110D01*
X005047Y022066D01*
X005066Y022020D01*
X005082Y021972D01*
X005094Y021923D01*
X005102Y021874D01*
X005106Y021824D01*
X005106Y021774D01*
X005102Y021724D01*
X005094Y021675D01*
X005082Y021626D01*
X005066Y021578D01*
X005047Y021532D01*
X005024Y021488D01*
X004997Y021445D01*
X004967Y021405D01*
X004935Y021367D01*
X004899Y021332D01*
X004860Y021300D01*
X004819Y021271D01*
X004776Y021245D01*
X004731Y021223D01*
X004685Y021205D01*
X004637Y021190D01*
X004588Y021179D01*
X004539Y021172D01*
X004489Y021169D01*
X004438Y021170D01*
X004389Y021175D01*
X004339Y021184D01*
X004291Y021197D01*
X004244Y021213D01*
X004198Y021234D01*
X004154Y021258D01*
X004112Y021285D01*
X004072Y021315D01*
X004035Y021349D01*
X004001Y021386D01*
X003969Y021425D01*
X003941Y021466D01*
X003916Y021510D01*
X003895Y021555D01*
X003878Y021602D01*
X003864Y021650D01*
X003854Y021699D01*
X003848Y021749D01*
X003846Y021799D01*
X021169Y021799D02*
X021171Y021849D01*
X021177Y021899D01*
X021187Y021948D01*
X021201Y021996D01*
X021218Y022043D01*
X021239Y022088D01*
X021264Y022132D01*
X021292Y022173D01*
X021324Y022212D01*
X021358Y022249D01*
X021395Y022283D01*
X021435Y022313D01*
X021477Y022340D01*
X021521Y022364D01*
X021567Y022385D01*
X021614Y022401D01*
X021662Y022414D01*
X021712Y022423D01*
X021761Y022428D01*
X021812Y022429D01*
X021862Y022426D01*
X021911Y022419D01*
X021960Y022408D01*
X022008Y022393D01*
X022054Y022375D01*
X022099Y022353D01*
X022142Y022327D01*
X022183Y022298D01*
X022222Y022266D01*
X022258Y022231D01*
X022290Y022193D01*
X022320Y022153D01*
X022347Y022110D01*
X022370Y022066D01*
X022389Y022020D01*
X022405Y021972D01*
X022417Y021923D01*
X022425Y021874D01*
X022429Y021824D01*
X022429Y021774D01*
X022425Y021724D01*
X022417Y021675D01*
X022405Y021626D01*
X022389Y021578D01*
X022370Y021532D01*
X022347Y021488D01*
X022320Y021445D01*
X022290Y021405D01*
X022258Y021367D01*
X022222Y021332D01*
X022183Y021300D01*
X022142Y021271D01*
X022099Y021245D01*
X022054Y021223D01*
X022008Y021205D01*
X021960Y021190D01*
X021911Y021179D01*
X021862Y021172D01*
X021812Y021169D01*
X021761Y021170D01*
X021712Y021175D01*
X021662Y021184D01*
X021614Y021197D01*
X021567Y021213D01*
X021521Y021234D01*
X021477Y021258D01*
X021435Y021285D01*
X021395Y021315D01*
X021358Y021349D01*
X021324Y021386D01*
X021292Y021425D01*
X021264Y021466D01*
X021239Y021510D01*
X021218Y021555D01*
X021201Y021602D01*
X021187Y021650D01*
X021177Y021699D01*
X021171Y021749D01*
X021169Y021799D01*
X021169Y004476D02*
X021171Y004526D01*
X021177Y004576D01*
X021187Y004625D01*
X021201Y004673D01*
X021218Y004720D01*
X021239Y004765D01*
X021264Y004809D01*
X021292Y004850D01*
X021324Y004889D01*
X021358Y004926D01*
X021395Y004960D01*
X021435Y004990D01*
X021477Y005017D01*
X021521Y005041D01*
X021567Y005062D01*
X021614Y005078D01*
X021662Y005091D01*
X021712Y005100D01*
X021761Y005105D01*
X021812Y005106D01*
X021862Y005103D01*
X021911Y005096D01*
X021960Y005085D01*
X022008Y005070D01*
X022054Y005052D01*
X022099Y005030D01*
X022142Y005004D01*
X022183Y004975D01*
X022222Y004943D01*
X022258Y004908D01*
X022290Y004870D01*
X022320Y004830D01*
X022347Y004787D01*
X022370Y004743D01*
X022389Y004697D01*
X022405Y004649D01*
X022417Y004600D01*
X022425Y004551D01*
X022429Y004501D01*
X022429Y004451D01*
X022425Y004401D01*
X022417Y004352D01*
X022405Y004303D01*
X022389Y004255D01*
X022370Y004209D01*
X022347Y004165D01*
X022320Y004122D01*
X022290Y004082D01*
X022258Y004044D01*
X022222Y004009D01*
X022183Y003977D01*
X022142Y003948D01*
X022099Y003922D01*
X022054Y003900D01*
X022008Y003882D01*
X021960Y003867D01*
X021911Y003856D01*
X021862Y003849D01*
X021812Y003846D01*
X021761Y003847D01*
X021712Y003852D01*
X021662Y003861D01*
X021614Y003874D01*
X021567Y003890D01*
X021521Y003911D01*
X021477Y003935D01*
X021435Y003962D01*
X021395Y003992D01*
X021358Y004026D01*
X021324Y004063D01*
X021292Y004102D01*
X021264Y004143D01*
X021239Y004187D01*
X021218Y004232D01*
X021201Y004279D01*
X021187Y004327D01*
X021177Y004376D01*
X021171Y004426D01*
X021169Y004476D01*
D11*
X021799Y004476D03*
X004476Y004476D03*
X004476Y021799D03*
X021799Y021799D03*
D12*
X015106Y012882D03*
X015106Y012213D03*
X011465Y012409D03*
X011465Y013079D03*
X011465Y013689D03*
X011465Y014358D03*
X011465Y015189D03*
X011465Y015858D03*
X011465Y011799D03*
X011465Y011130D03*
D13*
X012213Y011071D03*
X012882Y011071D03*
X013492Y011071D03*
X014161Y011071D03*
X012882Y014811D03*
X012213Y014811D03*
D14*
X015008Y014299D03*
X015008Y013551D03*
D15*
X014795Y008595D02*
X014795Y007995D01*
X013795Y007995D02*
X013795Y008595D01*
X012795Y008595D02*
X012795Y007995D01*
X011795Y007995D02*
X011795Y008595D01*
X010795Y008595D02*
X010795Y007995D01*
X009795Y007995D02*
X009795Y008595D01*
X008795Y008595D02*
X008795Y007995D01*
X006095Y008295D02*
X005495Y008295D01*
X005495Y007295D02*
X006095Y007295D01*
X006095Y009295D02*
X005495Y009295D01*
X005495Y010295D02*
X006095Y010295D01*
X006095Y011295D02*
X005495Y011295D01*
X004800Y012638D02*
X004200Y012638D01*
X004200Y013638D02*
X004800Y013638D01*
X012638Y021476D02*
X012638Y022076D01*
X013638Y022076D02*
X013638Y021476D01*
X018795Y021495D02*
X018795Y022095D01*
X019795Y022095D02*
X019795Y021495D01*
X021476Y013638D02*
X022076Y013638D01*
X022076Y012638D02*
X021476Y012638D01*
X017795Y008595D02*
X017795Y007995D01*
X016795Y007995D02*
X016795Y008595D01*
X015795Y008595D02*
X015795Y007995D01*
X013638Y004800D02*
X013638Y004200D01*
X012638Y004200D02*
X012638Y004800D01*
X007388Y004800D02*
X007388Y004200D01*
X006388Y004200D02*
X006388Y004800D01*
D16*
X019795Y016295D03*
X019795Y017295D03*
X019795Y018295D03*
X019795Y019295D03*
X020795Y019295D03*
X021795Y019295D03*
X021795Y018295D03*
X020795Y018295D03*
X020795Y017295D03*
X020795Y016295D03*
X021795Y016295D03*
X021795Y017295D03*
X021795Y008795D03*
X020795Y008795D03*
X020795Y007795D03*
X021795Y007795D03*
X021795Y006795D03*
X020795Y006795D03*
M02*
