%
M48
M72
T01C0.0157
T02C0.0197
T03C0.0400
T04C0.1260
%
T01
X12252Y11563
X11957Y12449
X11957Y13039
X11957Y13531
X12843Y14417
X14417Y14417
X14614Y13039
X14614Y12449
X14024Y11563
X13433Y11563
T02
X10545Y10995
X10145Y10295
X4295Y11295
X13395Y19345
X16795Y14295
T03
X19795Y16295
X19795Y17295
X19795Y18295
X19795Y19295
X20795Y19295
X21795Y19295
X21795Y18295
X20795Y18295
X20795Y17295
X20795Y16295
X21795Y16295
X21795Y17295
X21776Y13638
X21776Y12638
X21795Y8795
X20795Y8795
X20795Y7795
X21795Y7795
X21795Y6795
X20795Y6795
X17795Y8295
X16795Y8295
X15795Y8295
X14795Y8295
X13795Y8295
X12795Y8295
X11795Y8295
X10795Y8295
X9795Y8295
X8795Y8295
X5795Y8295
X5795Y7295
X5795Y9295
X5795Y10295
X5795Y11295
X4500Y12638
X4500Y13638
X12638Y21776
X13638Y21776
X18795Y21795
X19795Y21795
X13638Y4500
X12638Y4500
X7388Y4500
X6388Y4500
T04
X4476Y4476
X4476Y21799
X21799Y21799
X21799Y4476
M30
