G75*
G70*
%OFA0B0*%
%FSLAX24Y24*%
%IPPOS*%
%LPD*%
%AMOC8*
5,1,8,0,0,1.08239X$1,22.5*
%
%ADD10C,0.0000*%
%ADD11R,0.0630X0.0118*%
%ADD12R,0.0118X0.0630*%
%ADD13C,0.0630*%
%ADD14C,0.0600*%
%ADD15OC8,0.0600*%
%ADD16R,0.0591X0.0512*%
%ADD17R,0.0551X0.0394*%
%ADD18R,0.0630X0.0630*%
%ADD19C,0.0100*%
%ADD20C,0.0277*%
%ADD21C,0.0120*%
%ADD22C,0.0317*%
%ADD23C,0.0160*%
D10*
X003295Y003295D02*
X022980Y003295D01*
X022980Y022980D01*
X003295Y022980D01*
X003295Y003295D01*
X003846Y004476D02*
X003848Y004526D01*
X003854Y004576D01*
X003864Y004625D01*
X003878Y004673D01*
X003895Y004720D01*
X003916Y004765D01*
X003941Y004809D01*
X003969Y004850D01*
X004001Y004889D01*
X004035Y004926D01*
X004072Y004960D01*
X004112Y004990D01*
X004154Y005017D01*
X004198Y005041D01*
X004244Y005062D01*
X004291Y005078D01*
X004339Y005091D01*
X004389Y005100D01*
X004438Y005105D01*
X004489Y005106D01*
X004539Y005103D01*
X004588Y005096D01*
X004637Y005085D01*
X004685Y005070D01*
X004731Y005052D01*
X004776Y005030D01*
X004819Y005004D01*
X004860Y004975D01*
X004899Y004943D01*
X004935Y004908D01*
X004967Y004870D01*
X004997Y004830D01*
X005024Y004787D01*
X005047Y004743D01*
X005066Y004697D01*
X005082Y004649D01*
X005094Y004600D01*
X005102Y004551D01*
X005106Y004501D01*
X005106Y004451D01*
X005102Y004401D01*
X005094Y004352D01*
X005082Y004303D01*
X005066Y004255D01*
X005047Y004209D01*
X005024Y004165D01*
X004997Y004122D01*
X004967Y004082D01*
X004935Y004044D01*
X004899Y004009D01*
X004860Y003977D01*
X004819Y003948D01*
X004776Y003922D01*
X004731Y003900D01*
X004685Y003882D01*
X004637Y003867D01*
X004588Y003856D01*
X004539Y003849D01*
X004489Y003846D01*
X004438Y003847D01*
X004389Y003852D01*
X004339Y003861D01*
X004291Y003874D01*
X004244Y003890D01*
X004198Y003911D01*
X004154Y003935D01*
X004112Y003962D01*
X004072Y003992D01*
X004035Y004026D01*
X004001Y004063D01*
X003969Y004102D01*
X003941Y004143D01*
X003916Y004187D01*
X003895Y004232D01*
X003878Y004279D01*
X003864Y004327D01*
X003854Y004376D01*
X003848Y004426D01*
X003846Y004476D01*
X003846Y021799D02*
X003848Y021849D01*
X003854Y021899D01*
X003864Y021948D01*
X003878Y021996D01*
X003895Y022043D01*
X003916Y022088D01*
X003941Y022132D01*
X003969Y022173D01*
X004001Y022212D01*
X004035Y022249D01*
X004072Y022283D01*
X004112Y022313D01*
X004154Y022340D01*
X004198Y022364D01*
X004244Y022385D01*
X004291Y022401D01*
X004339Y022414D01*
X004389Y022423D01*
X004438Y022428D01*
X004489Y022429D01*
X004539Y022426D01*
X004588Y022419D01*
X004637Y022408D01*
X004685Y022393D01*
X004731Y022375D01*
X004776Y022353D01*
X004819Y022327D01*
X004860Y022298D01*
X004899Y022266D01*
X004935Y022231D01*
X004967Y022193D01*
X004997Y022153D01*
X005024Y022110D01*
X005047Y022066D01*
X005066Y022020D01*
X005082Y021972D01*
X005094Y021923D01*
X005102Y021874D01*
X005106Y021824D01*
X005106Y021774D01*
X005102Y021724D01*
X005094Y021675D01*
X005082Y021626D01*
X005066Y021578D01*
X005047Y021532D01*
X005024Y021488D01*
X004997Y021445D01*
X004967Y021405D01*
X004935Y021367D01*
X004899Y021332D01*
X004860Y021300D01*
X004819Y021271D01*
X004776Y021245D01*
X004731Y021223D01*
X004685Y021205D01*
X004637Y021190D01*
X004588Y021179D01*
X004539Y021172D01*
X004489Y021169D01*
X004438Y021170D01*
X004389Y021175D01*
X004339Y021184D01*
X004291Y021197D01*
X004244Y021213D01*
X004198Y021234D01*
X004154Y021258D01*
X004112Y021285D01*
X004072Y021315D01*
X004035Y021349D01*
X004001Y021386D01*
X003969Y021425D01*
X003941Y021466D01*
X003916Y021510D01*
X003895Y021555D01*
X003878Y021602D01*
X003864Y021650D01*
X003854Y021699D01*
X003848Y021749D01*
X003846Y021799D01*
X021169Y021799D02*
X021171Y021849D01*
X021177Y021899D01*
X021187Y021948D01*
X021201Y021996D01*
X021218Y022043D01*
X021239Y022088D01*
X021264Y022132D01*
X021292Y022173D01*
X021324Y022212D01*
X021358Y022249D01*
X021395Y022283D01*
X021435Y022313D01*
X021477Y022340D01*
X021521Y022364D01*
X021567Y022385D01*
X021614Y022401D01*
X021662Y022414D01*
X021712Y022423D01*
X021761Y022428D01*
X021812Y022429D01*
X021862Y022426D01*
X021911Y022419D01*
X021960Y022408D01*
X022008Y022393D01*
X022054Y022375D01*
X022099Y022353D01*
X022142Y022327D01*
X022183Y022298D01*
X022222Y022266D01*
X022258Y022231D01*
X022290Y022193D01*
X022320Y022153D01*
X022347Y022110D01*
X022370Y022066D01*
X022389Y022020D01*
X022405Y021972D01*
X022417Y021923D01*
X022425Y021874D01*
X022429Y021824D01*
X022429Y021774D01*
X022425Y021724D01*
X022417Y021675D01*
X022405Y021626D01*
X022389Y021578D01*
X022370Y021532D01*
X022347Y021488D01*
X022320Y021445D01*
X022290Y021405D01*
X022258Y021367D01*
X022222Y021332D01*
X022183Y021300D01*
X022142Y021271D01*
X022099Y021245D01*
X022054Y021223D01*
X022008Y021205D01*
X021960Y021190D01*
X021911Y021179D01*
X021862Y021172D01*
X021812Y021169D01*
X021761Y021170D01*
X021712Y021175D01*
X021662Y021184D01*
X021614Y021197D01*
X021567Y021213D01*
X021521Y021234D01*
X021477Y021258D01*
X021435Y021285D01*
X021395Y021315D01*
X021358Y021349D01*
X021324Y021386D01*
X021292Y021425D01*
X021264Y021466D01*
X021239Y021510D01*
X021218Y021555D01*
X021201Y021602D01*
X021187Y021650D01*
X021177Y021699D01*
X021171Y021749D01*
X021169Y021799D01*
X021169Y004476D02*
X021171Y004526D01*
X021177Y004576D01*
X021187Y004625D01*
X021201Y004673D01*
X021218Y004720D01*
X021239Y004765D01*
X021264Y004809D01*
X021292Y004850D01*
X021324Y004889D01*
X021358Y004926D01*
X021395Y004960D01*
X021435Y004990D01*
X021477Y005017D01*
X021521Y005041D01*
X021567Y005062D01*
X021614Y005078D01*
X021662Y005091D01*
X021712Y005100D01*
X021761Y005105D01*
X021812Y005106D01*
X021862Y005103D01*
X021911Y005096D01*
X021960Y005085D01*
X022008Y005070D01*
X022054Y005052D01*
X022099Y005030D01*
X022142Y005004D01*
X022183Y004975D01*
X022222Y004943D01*
X022258Y004908D01*
X022290Y004870D01*
X022320Y004830D01*
X022347Y004787D01*
X022370Y004743D01*
X022389Y004697D01*
X022405Y004649D01*
X022417Y004600D01*
X022425Y004551D01*
X022429Y004501D01*
X022429Y004451D01*
X022425Y004401D01*
X022417Y004352D01*
X022405Y004303D01*
X022389Y004255D01*
X022370Y004209D01*
X022347Y004165D01*
X022320Y004122D01*
X022290Y004082D01*
X022258Y004044D01*
X022222Y004009D01*
X022183Y003977D01*
X022142Y003948D01*
X022099Y003922D01*
X022054Y003900D01*
X022008Y003882D01*
X021960Y003867D01*
X021911Y003856D01*
X021862Y003849D01*
X021812Y003846D01*
X021761Y003847D01*
X021712Y003852D01*
X021662Y003861D01*
X021614Y003874D01*
X021567Y003890D01*
X021521Y003911D01*
X021477Y003935D01*
X021435Y003962D01*
X021395Y003992D01*
X021358Y004026D01*
X021324Y004063D01*
X021292Y004102D01*
X021264Y004143D01*
X021239Y004187D01*
X021218Y004232D01*
X021201Y004279D01*
X021187Y004327D01*
X021177Y004376D01*
X021171Y004426D01*
X021169Y004476D01*
D11*
X015539Y011465D03*
X015539Y011661D03*
X015539Y011858D03*
X015539Y012055D03*
X015539Y012252D03*
X015539Y012449D03*
X015539Y012646D03*
X015539Y012843D03*
X015539Y013039D03*
X015539Y013236D03*
X015539Y013433D03*
X015539Y013630D03*
X015539Y013827D03*
X015539Y014024D03*
X015539Y014220D03*
X015539Y014417D03*
X011130Y014417D03*
X011130Y014220D03*
X011130Y014024D03*
X011130Y013827D03*
X011130Y013630D03*
X011130Y013433D03*
X011130Y013236D03*
X011130Y013039D03*
X011130Y012843D03*
X011130Y012646D03*
X011130Y012449D03*
X011130Y012252D03*
X011130Y012055D03*
X011130Y011858D03*
X011130Y011661D03*
X011130Y011465D03*
D12*
X011858Y010736D03*
X012055Y010736D03*
X012252Y010736D03*
X012449Y010736D03*
X012646Y010736D03*
X012843Y010736D03*
X013039Y010736D03*
X013236Y010736D03*
X013433Y010736D03*
X013630Y010736D03*
X013827Y010736D03*
X014024Y010736D03*
X014220Y010736D03*
X014417Y010736D03*
X014614Y010736D03*
X014811Y010736D03*
X014811Y015146D03*
X014614Y015146D03*
X014417Y015146D03*
X014220Y015146D03*
X014024Y015146D03*
X013827Y015146D03*
X013630Y015146D03*
X013433Y015146D03*
X013236Y015146D03*
X013039Y015146D03*
X012843Y015146D03*
X012646Y015146D03*
X012449Y015146D03*
X012252Y015146D03*
X012055Y015146D03*
X011858Y015146D03*
D13*
X013357Y016836D03*
X013357Y017636D03*
X013357Y018486D03*
X018407Y012886D03*
X018907Y012386D03*
X018407Y011886D03*
X018907Y011386D03*
X018407Y010886D03*
X011707Y009636D03*
X010757Y009636D03*
X007407Y013836D03*
X006657Y014386D03*
X007407Y014836D03*
X006657Y015336D03*
X007407Y015836D03*
X006657Y016336D03*
X007407Y016836D03*
X006657Y017336D03*
X007407Y017836D03*
X006657Y018336D03*
X007407Y018836D03*
X006657Y019386D03*
D14*
X004800Y013638D02*
X004200Y013638D01*
X004200Y012638D02*
X004800Y012638D01*
X005495Y011295D02*
X006095Y011295D01*
X006095Y010295D02*
X005495Y010295D01*
X005495Y009295D02*
X006095Y009295D01*
X006095Y008295D02*
X005495Y008295D01*
X005495Y007295D02*
X006095Y007295D01*
X006388Y004800D02*
X006388Y004200D01*
X007388Y004200D02*
X007388Y004800D01*
X008795Y007995D02*
X008795Y008595D01*
X009795Y008595D02*
X009795Y007995D01*
X010795Y007995D02*
X010795Y008595D01*
X011795Y008595D02*
X011795Y007995D01*
X012795Y007995D02*
X012795Y008595D01*
X013795Y008595D02*
X013795Y007995D01*
X014795Y007995D02*
X014795Y008595D01*
X015795Y008595D02*
X015795Y007995D01*
X016795Y007995D02*
X016795Y008595D01*
X017795Y008595D02*
X017795Y007995D01*
X013638Y004800D02*
X013638Y004200D01*
X012638Y004200D02*
X012638Y004800D01*
X021476Y012638D02*
X022076Y012638D01*
X022076Y013638D02*
X021476Y013638D01*
X019795Y021495D02*
X019795Y022095D01*
X018795Y022095D02*
X018795Y021495D01*
X013638Y021476D02*
X013638Y022076D01*
X012638Y022076D02*
X012638Y021476D01*
D15*
X019795Y019295D03*
X019795Y018295D03*
X019795Y017295D03*
X019795Y016295D03*
X020795Y016295D03*
X020795Y017295D03*
X021795Y017295D03*
X021795Y016295D03*
X021795Y018295D03*
X020795Y018295D03*
X020795Y019295D03*
X021795Y019295D03*
X021795Y008795D03*
X020795Y008795D03*
X020795Y007795D03*
X021795Y007795D03*
X021795Y006795D03*
X020795Y006795D03*
D16*
X017245Y015771D03*
X017245Y016519D03*
X015545Y016569D03*
X015545Y017271D03*
X015545Y018019D03*
X015545Y015821D03*
X011145Y005669D03*
X011145Y004921D03*
X008495Y005169D03*
X008495Y004421D03*
D17*
X009362Y005295D03*
X010228Y004921D03*
X010228Y005669D03*
D18*
X016545Y018595D03*
X016545Y021645D03*
D19*
X013433Y015146D02*
X013433Y014614D01*
X013630Y014417D01*
X014417Y014417D01*
X013236Y014614D02*
X013039Y014417D01*
X012843Y014417D01*
X013236Y014614D02*
X013236Y015146D01*
X011957Y013531D02*
X011661Y013236D01*
X011130Y013236D01*
X011130Y012843D02*
X011760Y012843D01*
X011957Y013039D01*
X013433Y013039D01*
X013433Y011563D01*
X012744Y011563D01*
X012449Y011268D01*
X012449Y010736D01*
X012252Y010736D02*
X012252Y011563D01*
X011957Y012449D02*
X011760Y012646D01*
X011130Y012646D01*
X013433Y013039D02*
X014614Y013039D01*
X015539Y013039D01*
X015539Y012449D02*
X014614Y012449D01*
X014024Y011563D02*
X013925Y011563D01*
X013630Y011268D01*
X013630Y010736D01*
X013433Y010736D02*
X013433Y011563D01*
D20*
X013433Y011563D03*
X014024Y011563D03*
X014614Y012449D03*
X014614Y013039D03*
X014417Y014417D03*
X012843Y014417D03*
X011957Y013531D03*
X011957Y013039D03*
X011957Y012449D03*
X012252Y011563D03*
D21*
X012055Y010736D02*
X012055Y009983D01*
X011707Y009636D01*
X011595Y010195D02*
X011095Y010195D01*
X010795Y009895D01*
X010845Y009824D01*
X010757Y009636D01*
X010145Y010295D02*
X010145Y011395D01*
X010411Y011661D01*
X011130Y011661D01*
X011130Y011465D02*
X010715Y011465D01*
X010545Y011295D01*
X010545Y010995D01*
X011595Y010195D02*
X011858Y010408D01*
X011858Y010736D01*
X013433Y010736D02*
X013433Y010333D01*
X013620Y009245D02*
X014395Y009245D01*
X014620Y009470D01*
X014620Y010667D01*
X014614Y010736D01*
X014811Y010736D02*
X014820Y010720D01*
X014820Y009270D01*
X014295Y008745D01*
X014295Y007820D01*
X013995Y007520D01*
X012345Y007520D01*
X011795Y008070D01*
X011795Y008295D01*
X012795Y008295D02*
X012795Y008420D01*
X013620Y009245D01*
X015539Y011465D02*
X017829Y011465D01*
X018407Y010886D01*
X019005Y010886D01*
X019695Y010195D01*
X019695Y007395D01*
X020295Y006795D01*
X020795Y006795D01*
X020795Y007795D02*
X020395Y007795D01*
X020095Y008095D01*
X020095Y010695D01*
X019405Y011386D01*
X018907Y011386D01*
X018698Y011395D01*
X018195Y011395D01*
X017929Y011661D01*
X015539Y011661D01*
X015539Y011858D02*
X018380Y011858D01*
X018407Y011886D01*
X019705Y011886D01*
X020795Y010795D01*
X020795Y008795D01*
X021795Y008795D02*
X021795Y010295D01*
X019705Y012386D01*
X018907Y012386D01*
X018798Y012395D01*
X018195Y012395D01*
X017855Y012055D01*
X015539Y012055D01*
X015539Y012252D02*
X017774Y012252D01*
X018407Y012886D01*
X019705Y012886D01*
X022445Y010145D01*
X022445Y008045D01*
X022195Y007795D01*
X021795Y007795D01*
X017436Y013236D02*
X018995Y014795D01*
X018995Y015995D01*
X019295Y016295D01*
X019795Y016295D01*
X019795Y017295D02*
X018795Y017295D01*
X018595Y017095D01*
X018595Y014795D01*
X017233Y013433D01*
X015539Y013433D01*
X015539Y013236D02*
X017436Y013236D01*
X017030Y013630D02*
X018195Y014795D01*
X018195Y017895D01*
X018595Y018295D01*
X019795Y018295D01*
X019795Y019295D02*
X018795Y019295D01*
X017795Y018295D01*
X017795Y014795D01*
X016827Y013827D01*
X015539Y013827D01*
X015539Y014024D02*
X016524Y014024D01*
X016795Y014295D01*
X016070Y014220D02*
X017245Y015395D01*
X017245Y015771D01*
X016869Y015771D01*
X016545Y016095D01*
X016545Y018595D01*
X017245Y018645D02*
X018895Y020295D01*
X020245Y020295D01*
X020795Y019745D01*
X020795Y019295D01*
X017245Y018645D02*
X017245Y016519D01*
X015545Y016569D02*
X015545Y017271D01*
X015545Y018019D02*
X015545Y020645D01*
X016545Y021645D01*
X016396Y021495D01*
X016516Y021776D01*
X013638Y021776D01*
X012638Y021776D02*
X014811Y019602D01*
X014811Y015146D01*
X014614Y015146D02*
X014614Y019376D01*
X013195Y020795D01*
X005795Y020795D01*
X005295Y020295D01*
X005295Y013433D01*
X004500Y012638D01*
X005795Y012795D02*
X004295Y011295D01*
X005795Y011295D02*
X008695Y011295D01*
X010636Y013236D01*
X011130Y013236D01*
X011130Y013433D02*
X009907Y013433D01*
X009495Y013845D01*
X007417Y013845D01*
X007407Y013836D01*
X006698Y014345D02*
X006657Y014386D01*
X006698Y014345D02*
X009345Y014345D01*
X010061Y013630D01*
X011130Y013630D01*
X011130Y013827D02*
X010214Y013827D01*
X009195Y014845D01*
X007417Y014845D01*
X007407Y014836D01*
X006667Y015345D02*
X006657Y015336D01*
X006667Y015345D02*
X009045Y015345D01*
X010367Y014024D01*
X011130Y014024D01*
X011130Y014220D02*
X010520Y014220D01*
X008895Y015845D01*
X007417Y015845D01*
X007407Y015836D01*
X006667Y016345D02*
X006657Y016336D01*
X006667Y016345D02*
X008745Y016345D01*
X010673Y014417D01*
X011130Y014417D01*
X011858Y015146D02*
X011858Y016232D01*
X011295Y016795D01*
X007448Y016795D01*
X007407Y016836D01*
X006717Y017345D02*
X006657Y017336D01*
X006717Y017345D02*
X011245Y017345D01*
X012055Y016535D01*
X012055Y015146D01*
X012252Y015146D02*
X012252Y016889D01*
X011295Y017845D01*
X007417Y017845D01*
X007407Y017836D01*
X006667Y018345D02*
X006657Y018336D01*
X006667Y018345D02*
X011345Y018345D01*
X012449Y017242D01*
X012449Y015146D01*
X012646Y015146D02*
X012646Y017595D01*
X011395Y018845D01*
X007417Y018845D01*
X007407Y018836D01*
X006667Y019395D02*
X006657Y019386D01*
X006667Y019395D02*
X011445Y019395D01*
X012843Y017998D01*
X012843Y015146D01*
X013630Y015146D02*
X013630Y016563D01*
X013357Y016836D01*
X013827Y017167D02*
X013357Y017636D01*
X013827Y017167D02*
X013827Y015146D01*
X014024Y015146D02*
X014024Y017820D01*
X013357Y018486D01*
X013395Y019345D02*
X014220Y018520D01*
X014220Y015146D01*
X014417Y015146D02*
X014417Y019173D01*
X013295Y020295D01*
X006295Y020295D01*
X005795Y019795D01*
X005795Y012795D01*
X010546Y012646D02*
X011130Y012646D01*
X011130Y012449D02*
X011076Y012445D01*
X015539Y013630D02*
X017030Y013630D01*
X016070Y014220D02*
X015539Y014220D01*
X015539Y014417D02*
X015867Y014417D01*
X016045Y014595D01*
X016045Y014945D01*
X015545Y015445D01*
X015545Y015821D01*
D22*
X016795Y014295D03*
X013395Y019345D03*
X010545Y010995D03*
X010145Y010295D03*
X004295Y011295D03*
D23*
X005795Y010295D02*
X009795Y010295D01*
X009795Y011895D01*
X010546Y012646D01*
X009795Y010295D02*
X009794Y008283D01*
X009795Y008295D01*
X009794Y008283D02*
X009795Y008095D01*
X009795Y007795D01*
X011145Y006445D01*
X011145Y005669D01*
X010228Y005669D01*
X010228Y004921D02*
X011145Y004921D01*
X011671Y004921D01*
X011895Y005145D01*
X011895Y006695D01*
X010795Y007795D01*
X010795Y008295D01*
X010795Y008795D01*
X011045Y009045D01*
X012145Y009045D01*
X013433Y010333D01*
X009362Y005295D02*
X008621Y005295D01*
X008495Y005169D01*
X008045Y005595D01*
X006845Y005595D01*
X006388Y005138D01*
X006388Y004500D01*
X007388Y004500D02*
X008417Y004500D01*
X008495Y004421D01*
X009728Y004421D01*
X010228Y004921D01*
M02*
