G75*
G70*
%OFA0B0*%
%FSLAX24Y24*%
%IPPOS*%
%LPD*%
%AMOC8*
5,1,8,0,0,1.08239X$1,22.5*
%
%ADD10C,0.0000*%
%ADD11R,0.0394X0.0433*%
%ADD12R,0.0433X0.0394*%
%ADD13R,0.0591X0.0512*%
%ADD14C,0.0600*%
%ADD15OC8,0.0600*%
%ADD16C,0.0100*%
%ADD17C,0.0277*%
%ADD18C,0.0120*%
%ADD19C,0.0317*%
%ADD20C,0.0160*%
%ADD21C,0.0240*%
D10*
X003295Y003295D02*
X022980Y003295D01*
X022980Y022980D01*
X003295Y022980D01*
X003295Y003295D01*
X003846Y004476D02*
X003848Y004526D01*
X003854Y004576D01*
X003864Y004625D01*
X003878Y004673D01*
X003895Y004720D01*
X003916Y004765D01*
X003941Y004809D01*
X003969Y004850D01*
X004001Y004889D01*
X004035Y004926D01*
X004072Y004960D01*
X004112Y004990D01*
X004154Y005017D01*
X004198Y005041D01*
X004244Y005062D01*
X004291Y005078D01*
X004339Y005091D01*
X004389Y005100D01*
X004438Y005105D01*
X004489Y005106D01*
X004539Y005103D01*
X004588Y005096D01*
X004637Y005085D01*
X004685Y005070D01*
X004731Y005052D01*
X004776Y005030D01*
X004819Y005004D01*
X004860Y004975D01*
X004899Y004943D01*
X004935Y004908D01*
X004967Y004870D01*
X004997Y004830D01*
X005024Y004787D01*
X005047Y004743D01*
X005066Y004697D01*
X005082Y004649D01*
X005094Y004600D01*
X005102Y004551D01*
X005106Y004501D01*
X005106Y004451D01*
X005102Y004401D01*
X005094Y004352D01*
X005082Y004303D01*
X005066Y004255D01*
X005047Y004209D01*
X005024Y004165D01*
X004997Y004122D01*
X004967Y004082D01*
X004935Y004044D01*
X004899Y004009D01*
X004860Y003977D01*
X004819Y003948D01*
X004776Y003922D01*
X004731Y003900D01*
X004685Y003882D01*
X004637Y003867D01*
X004588Y003856D01*
X004539Y003849D01*
X004489Y003846D01*
X004438Y003847D01*
X004389Y003852D01*
X004339Y003861D01*
X004291Y003874D01*
X004244Y003890D01*
X004198Y003911D01*
X004154Y003935D01*
X004112Y003962D01*
X004072Y003992D01*
X004035Y004026D01*
X004001Y004063D01*
X003969Y004102D01*
X003941Y004143D01*
X003916Y004187D01*
X003895Y004232D01*
X003878Y004279D01*
X003864Y004327D01*
X003854Y004376D01*
X003848Y004426D01*
X003846Y004476D01*
X003846Y021799D02*
X003848Y021849D01*
X003854Y021899D01*
X003864Y021948D01*
X003878Y021996D01*
X003895Y022043D01*
X003916Y022088D01*
X003941Y022132D01*
X003969Y022173D01*
X004001Y022212D01*
X004035Y022249D01*
X004072Y022283D01*
X004112Y022313D01*
X004154Y022340D01*
X004198Y022364D01*
X004244Y022385D01*
X004291Y022401D01*
X004339Y022414D01*
X004389Y022423D01*
X004438Y022428D01*
X004489Y022429D01*
X004539Y022426D01*
X004588Y022419D01*
X004637Y022408D01*
X004685Y022393D01*
X004731Y022375D01*
X004776Y022353D01*
X004819Y022327D01*
X004860Y022298D01*
X004899Y022266D01*
X004935Y022231D01*
X004967Y022193D01*
X004997Y022153D01*
X005024Y022110D01*
X005047Y022066D01*
X005066Y022020D01*
X005082Y021972D01*
X005094Y021923D01*
X005102Y021874D01*
X005106Y021824D01*
X005106Y021774D01*
X005102Y021724D01*
X005094Y021675D01*
X005082Y021626D01*
X005066Y021578D01*
X005047Y021532D01*
X005024Y021488D01*
X004997Y021445D01*
X004967Y021405D01*
X004935Y021367D01*
X004899Y021332D01*
X004860Y021300D01*
X004819Y021271D01*
X004776Y021245D01*
X004731Y021223D01*
X004685Y021205D01*
X004637Y021190D01*
X004588Y021179D01*
X004539Y021172D01*
X004489Y021169D01*
X004438Y021170D01*
X004389Y021175D01*
X004339Y021184D01*
X004291Y021197D01*
X004244Y021213D01*
X004198Y021234D01*
X004154Y021258D01*
X004112Y021285D01*
X004072Y021315D01*
X004035Y021349D01*
X004001Y021386D01*
X003969Y021425D01*
X003941Y021466D01*
X003916Y021510D01*
X003895Y021555D01*
X003878Y021602D01*
X003864Y021650D01*
X003854Y021699D01*
X003848Y021749D01*
X003846Y021799D01*
X021169Y021799D02*
X021171Y021849D01*
X021177Y021899D01*
X021187Y021948D01*
X021201Y021996D01*
X021218Y022043D01*
X021239Y022088D01*
X021264Y022132D01*
X021292Y022173D01*
X021324Y022212D01*
X021358Y022249D01*
X021395Y022283D01*
X021435Y022313D01*
X021477Y022340D01*
X021521Y022364D01*
X021567Y022385D01*
X021614Y022401D01*
X021662Y022414D01*
X021712Y022423D01*
X021761Y022428D01*
X021812Y022429D01*
X021862Y022426D01*
X021911Y022419D01*
X021960Y022408D01*
X022008Y022393D01*
X022054Y022375D01*
X022099Y022353D01*
X022142Y022327D01*
X022183Y022298D01*
X022222Y022266D01*
X022258Y022231D01*
X022290Y022193D01*
X022320Y022153D01*
X022347Y022110D01*
X022370Y022066D01*
X022389Y022020D01*
X022405Y021972D01*
X022417Y021923D01*
X022425Y021874D01*
X022429Y021824D01*
X022429Y021774D01*
X022425Y021724D01*
X022417Y021675D01*
X022405Y021626D01*
X022389Y021578D01*
X022370Y021532D01*
X022347Y021488D01*
X022320Y021445D01*
X022290Y021405D01*
X022258Y021367D01*
X022222Y021332D01*
X022183Y021300D01*
X022142Y021271D01*
X022099Y021245D01*
X022054Y021223D01*
X022008Y021205D01*
X021960Y021190D01*
X021911Y021179D01*
X021862Y021172D01*
X021812Y021169D01*
X021761Y021170D01*
X021712Y021175D01*
X021662Y021184D01*
X021614Y021197D01*
X021567Y021213D01*
X021521Y021234D01*
X021477Y021258D01*
X021435Y021285D01*
X021395Y021315D01*
X021358Y021349D01*
X021324Y021386D01*
X021292Y021425D01*
X021264Y021466D01*
X021239Y021510D01*
X021218Y021555D01*
X021201Y021602D01*
X021187Y021650D01*
X021177Y021699D01*
X021171Y021749D01*
X021169Y021799D01*
X021169Y004476D02*
X021171Y004526D01*
X021177Y004576D01*
X021187Y004625D01*
X021201Y004673D01*
X021218Y004720D01*
X021239Y004765D01*
X021264Y004809D01*
X021292Y004850D01*
X021324Y004889D01*
X021358Y004926D01*
X021395Y004960D01*
X021435Y004990D01*
X021477Y005017D01*
X021521Y005041D01*
X021567Y005062D01*
X021614Y005078D01*
X021662Y005091D01*
X021712Y005100D01*
X021761Y005105D01*
X021812Y005106D01*
X021862Y005103D01*
X021911Y005096D01*
X021960Y005085D01*
X022008Y005070D01*
X022054Y005052D01*
X022099Y005030D01*
X022142Y005004D01*
X022183Y004975D01*
X022222Y004943D01*
X022258Y004908D01*
X022290Y004870D01*
X022320Y004830D01*
X022347Y004787D01*
X022370Y004743D01*
X022389Y004697D01*
X022405Y004649D01*
X022417Y004600D01*
X022425Y004551D01*
X022429Y004501D01*
X022429Y004451D01*
X022425Y004401D01*
X022417Y004352D01*
X022405Y004303D01*
X022389Y004255D01*
X022370Y004209D01*
X022347Y004165D01*
X022320Y004122D01*
X022290Y004082D01*
X022258Y004044D01*
X022222Y004009D01*
X022183Y003977D01*
X022142Y003948D01*
X022099Y003922D01*
X022054Y003900D01*
X022008Y003882D01*
X021960Y003867D01*
X021911Y003856D01*
X021862Y003849D01*
X021812Y003846D01*
X021761Y003847D01*
X021712Y003852D01*
X021662Y003861D01*
X021614Y003874D01*
X021567Y003890D01*
X021521Y003911D01*
X021477Y003935D01*
X021435Y003962D01*
X021395Y003992D01*
X021358Y004026D01*
X021324Y004063D01*
X021292Y004102D01*
X021264Y004143D01*
X021239Y004187D01*
X021218Y004232D01*
X021201Y004279D01*
X021187Y004327D01*
X021177Y004376D01*
X021171Y004426D01*
X021169Y004476D01*
D11*
X015106Y012213D03*
X015106Y012882D03*
X011465Y013079D03*
X011465Y012409D03*
X011465Y011799D03*
X011465Y011130D03*
X011465Y013689D03*
X011465Y014358D03*
X011465Y015189D03*
X011465Y015858D03*
D12*
X012213Y014811D03*
X012882Y014811D03*
X012882Y011071D03*
X013492Y011071D03*
X014161Y011071D03*
X012213Y011071D03*
D13*
X015008Y013551D03*
X015008Y014299D03*
D14*
X014795Y008595D02*
X014795Y007995D01*
X013795Y007995D02*
X013795Y008595D01*
X012795Y008595D02*
X012795Y007995D01*
X011795Y007995D02*
X011795Y008595D01*
X010795Y008595D02*
X010795Y007995D01*
X009795Y007995D02*
X009795Y008595D01*
X008795Y008595D02*
X008795Y007995D01*
X006095Y008295D02*
X005495Y008295D01*
X005495Y007295D02*
X006095Y007295D01*
X006095Y009295D02*
X005495Y009295D01*
X005495Y010295D02*
X006095Y010295D01*
X006095Y011295D02*
X005495Y011295D01*
X004800Y012638D02*
X004200Y012638D01*
X004200Y013638D02*
X004800Y013638D01*
X012638Y021476D02*
X012638Y022076D01*
X013638Y022076D02*
X013638Y021476D01*
X018795Y021495D02*
X018795Y022095D01*
X019795Y022095D02*
X019795Y021495D01*
X021476Y013638D02*
X022076Y013638D01*
X022076Y012638D02*
X021476Y012638D01*
X017795Y008595D02*
X017795Y007995D01*
X016795Y007995D02*
X016795Y008595D01*
X015795Y008595D02*
X015795Y007995D01*
X013638Y004800D02*
X013638Y004200D01*
X012638Y004200D02*
X012638Y004800D01*
X007388Y004800D02*
X007388Y004200D01*
X006388Y004200D02*
X006388Y004800D01*
D15*
X019795Y016295D03*
X019795Y017295D03*
X019795Y018295D03*
X019795Y019295D03*
X020795Y019295D03*
X021795Y019295D03*
X021795Y018295D03*
X020795Y018295D03*
X020795Y017295D03*
X020795Y016295D03*
X021795Y016295D03*
X021795Y017295D03*
X021795Y008795D03*
X020795Y008795D03*
X020795Y007795D03*
X021795Y007795D03*
X021795Y006795D03*
X020795Y006795D03*
D16*
X015402Y012252D02*
X015106Y012252D01*
X015106Y012213D01*
X015106Y012154D01*
X014811Y011858D01*
X014024Y011858D01*
X011465Y011858D01*
X011465Y011799D02*
X011465Y012409D01*
X011465Y012449D01*
X011957Y012449D01*
X011957Y013039D02*
X011465Y013039D01*
X011465Y013079D01*
X011465Y013531D02*
X011465Y013689D01*
X011465Y013531D02*
X011957Y013531D01*
X011465Y014358D02*
X011465Y014713D01*
X011463Y014811D01*
X012213Y014811D01*
X012843Y014811D02*
X012843Y014417D01*
X012843Y014811D02*
X012882Y014811D01*
X015303Y014811D01*
X015500Y014614D01*
X015500Y012350D01*
X015402Y012252D01*
X015106Y012252D02*
X014909Y012449D01*
X014614Y012449D01*
X014614Y013039D02*
X015106Y013039D01*
X015106Y012882D01*
X015106Y013039D02*
X015106Y013630D01*
X015008Y013551D01*
X015008Y014299D02*
X015008Y014417D01*
X014417Y014417D01*
X014024Y011858D02*
X014024Y011563D01*
X014024Y011228D01*
X014161Y011071D01*
X013492Y011071D02*
X013433Y011110D01*
X013433Y011563D01*
X013492Y011071D02*
X012882Y011071D01*
X012252Y011110D02*
X012213Y011071D01*
X011465Y011071D01*
X011465Y011130D01*
X012252Y011110D02*
X012252Y011563D01*
D17*
X012252Y011563D03*
X011957Y012449D03*
X011957Y013039D03*
X011957Y013531D03*
X012843Y014417D03*
X014417Y014417D03*
X014614Y013039D03*
X014614Y012449D03*
X014024Y011563D03*
X013433Y011563D03*
D18*
X013454Y011428D02*
X013255Y011428D01*
X013214Y011417D01*
X013187Y011401D01*
X013160Y011417D01*
X013119Y011428D01*
X012920Y011428D01*
X012920Y011109D01*
X012843Y011109D01*
X012843Y011428D01*
X012644Y011428D01*
X012604Y011417D01*
X012596Y011412D01*
X012583Y011425D01*
X012611Y011492D01*
X012611Y011588D01*
X013665Y011588D01*
X013665Y011492D01*
X013691Y011428D01*
X013531Y011428D01*
X013531Y011109D01*
X013725Y011109D01*
X013725Y011032D01*
X013531Y011032D01*
X013531Y011109D01*
X013454Y011109D01*
X013454Y011032D01*
X013531Y011032D01*
X013531Y010714D01*
X013730Y010714D01*
X013770Y010725D01*
X013778Y010729D01*
X013854Y010654D01*
X014469Y010654D01*
X014598Y010783D01*
X014598Y011359D01*
X014469Y011488D01*
X014381Y011488D01*
X014382Y011492D01*
X014382Y011588D01*
X014865Y011588D01*
X014964Y011629D01*
X015040Y011705D01*
X015111Y011776D01*
X015394Y011776D01*
X015523Y011905D01*
X015523Y012010D01*
X015555Y012023D01*
X015630Y012099D01*
X015729Y012197D01*
X015770Y012297D01*
X015770Y014668D01*
X015729Y014767D01*
X015653Y014843D01*
X015653Y014843D01*
X015456Y015040D01*
X015357Y015081D01*
X013318Y015081D01*
X013318Y015099D01*
X013190Y015228D01*
X012574Y015228D01*
X012547Y015201D01*
X012520Y015228D01*
X011905Y015228D01*
X011881Y015204D01*
X011881Y015497D01*
X011806Y015572D01*
X011811Y015580D01*
X011821Y015621D01*
X011821Y015820D01*
X011503Y015820D01*
X011503Y015897D01*
X011426Y015897D01*
X011426Y016235D01*
X011247Y016235D01*
X011206Y016224D01*
X011169Y016203D01*
X011140Y016173D01*
X011119Y016137D01*
X011108Y016096D01*
X011108Y015897D01*
X011426Y015897D01*
X011426Y015820D01*
X011108Y015820D01*
X011108Y015621D01*
X011119Y015580D01*
X011123Y015572D01*
X011048Y015497D01*
X011048Y014881D01*
X011155Y014774D01*
X011048Y014666D01*
X011048Y014051D01*
X011075Y014024D01*
X011048Y013997D01*
X011048Y013381D01*
X011109Y013320D01*
X011108Y013316D01*
X011108Y013117D01*
X011426Y013117D01*
X011426Y013040D01*
X011426Y012846D01*
X011503Y012846D01*
X011503Y013040D01*
X011426Y013040D01*
X011108Y013040D01*
X011108Y012841D01*
X011119Y012800D01*
X011123Y012793D01*
X011048Y012717D01*
X011048Y011492D01*
X011075Y011465D01*
X011048Y011438D01*
X011048Y010822D01*
X011177Y010693D01*
X011753Y010693D01*
X011809Y010750D01*
X011905Y010654D01*
X012520Y010654D01*
X012596Y010729D01*
X012604Y010725D01*
X012644Y010714D01*
X012843Y010714D01*
X012843Y011032D01*
X012920Y011032D01*
X012920Y010714D01*
X013119Y010714D01*
X013160Y010725D01*
X013187Y010740D01*
X013214Y010725D01*
X013255Y010714D01*
X013454Y010714D01*
X013454Y011032D01*
X013116Y011032D01*
X012920Y011032D01*
X012920Y011109D01*
X013454Y011109D01*
X013454Y011428D01*
X013454Y011353D02*
X013531Y011353D01*
X013531Y011235D02*
X013454Y011235D01*
X013454Y011116D02*
X013531Y011116D01*
X013531Y010998D02*
X013454Y010998D01*
X013454Y010879D02*
X013531Y010879D01*
X013531Y010761D02*
X013454Y010761D01*
X012920Y010761D02*
X012843Y010761D01*
X012843Y010879D02*
X012920Y010879D01*
X012920Y010998D02*
X012843Y010998D01*
X012843Y011116D02*
X012920Y011116D01*
X012920Y011235D02*
X012843Y011235D01*
X012843Y011353D02*
X012920Y011353D01*
X012602Y011472D02*
X013673Y011472D01*
X014485Y011472D02*
X022395Y011472D01*
X022395Y011590D02*
X014870Y011590D01*
X015043Y011709D02*
X022395Y011709D01*
X022395Y011827D02*
X015446Y011827D01*
X015523Y011946D02*
X022395Y011946D01*
X022395Y012064D02*
X015596Y012064D01*
X015630Y012099D02*
X015630Y012099D01*
X015714Y012183D02*
X021408Y012183D01*
X021439Y012178D02*
X021736Y012178D01*
X021736Y012598D01*
X021816Y012598D01*
X021816Y012178D01*
X022112Y012178D01*
X022183Y012189D01*
X022252Y012211D01*
X022317Y012244D01*
X022375Y012287D01*
X022395Y012307D01*
X022395Y005082D01*
X022281Y005197D01*
X021968Y005326D01*
X021630Y005326D01*
X021318Y005197D01*
X021079Y004958D01*
X020949Y004645D01*
X020949Y004307D01*
X021079Y003995D01*
X021278Y003795D01*
X013968Y003795D01*
X014079Y003905D01*
X014158Y004097D01*
X014158Y004903D01*
X014079Y005095D01*
X013932Y005241D01*
X013741Y005320D01*
X013534Y005320D01*
X013343Y005241D01*
X013318Y005216D01*
X011801Y006733D01*
X011698Y006775D01*
X005411Y006775D01*
X006199Y006775D01*
X006390Y006854D01*
X006536Y007001D01*
X006615Y007192D01*
X006615Y007219D01*
X008411Y009015D01*
X008480Y009015D01*
X008354Y008890D01*
X008275Y008699D01*
X008275Y007892D01*
X008354Y007701D01*
X008501Y007554D01*
X008692Y007475D01*
X008899Y007475D01*
X009090Y007554D01*
X009236Y007701D01*
X009295Y007844D01*
X009354Y007701D01*
X009501Y007554D01*
X009692Y007475D01*
X009899Y007475D01*
X010090Y007554D01*
X010236Y007701D01*
X010315Y007892D01*
X010315Y008699D01*
X010236Y008890D01*
X010090Y009036D01*
X009899Y009115D01*
X009692Y009115D01*
X009501Y009036D01*
X009354Y008890D01*
X009295Y008747D01*
X009236Y008890D01*
X009111Y009015D01*
X009251Y009015D01*
X009262Y009012D01*
X009307Y009015D01*
X009351Y009015D01*
X009362Y009020D01*
X009373Y009021D01*
X009413Y009041D01*
X009454Y009058D01*
X009462Y009066D01*
X009473Y009071D01*
X009501Y009105D01*
X009533Y009137D01*
X009537Y009147D01*
X010191Y009917D01*
X010221Y009917D01*
X010360Y009974D01*
X010466Y010081D01*
X010524Y010220D01*
X010524Y010371D01*
X010466Y010510D01*
X010360Y010616D01*
X010291Y010645D01*
X010326Y010680D01*
X010331Y010674D01*
X010470Y010617D01*
X010621Y010617D01*
X010760Y010674D01*
X010866Y010781D01*
X010924Y010920D01*
X010924Y011071D01*
X010866Y011210D01*
X010760Y011316D01*
X010621Y011374D01*
X010470Y011374D01*
X010331Y011316D01*
X010290Y011275D01*
X010190Y011275D01*
X010087Y011233D01*
X008929Y010075D01*
X007990Y010075D01*
X007887Y010033D01*
X006490Y008636D01*
X006390Y008736D01*
X006199Y008815D01*
X005392Y008815D01*
X005201Y008736D01*
X005054Y008590D01*
X004975Y008399D01*
X004975Y008192D01*
X005054Y008001D01*
X005201Y007854D01*
X005344Y007795D01*
X005201Y007736D01*
X005054Y007590D01*
X004975Y007399D01*
X004975Y007211D01*
X004575Y007611D01*
X004575Y011040D01*
X004616Y011081D01*
X004674Y011220D01*
X004674Y011371D01*
X004616Y011510D01*
X004510Y011616D01*
X004371Y011674D01*
X004220Y011674D01*
X004081Y011616D01*
X003974Y011510D01*
X003917Y011371D01*
X003917Y011220D01*
X003974Y011081D01*
X004015Y011040D01*
X004015Y007440D01*
X004058Y007337D01*
X005058Y006337D01*
X005137Y006258D01*
X003795Y006258D01*
X003795Y006376D02*
X005018Y006376D01*
X005137Y006258D02*
X005240Y006215D01*
X011527Y006215D01*
X012502Y005240D01*
X012461Y005226D01*
X012397Y005193D01*
X012338Y005151D01*
X012287Y005100D01*
X012244Y005041D01*
X012211Y004977D01*
X012189Y004908D01*
X012178Y004836D01*
X012178Y004540D01*
X012598Y004540D01*
X012598Y004460D01*
X012178Y004460D01*
X012178Y004164D01*
X012189Y004092D01*
X012211Y004023D01*
X012244Y003959D01*
X012287Y003900D01*
X012338Y003849D01*
X012397Y003807D01*
X012419Y003795D01*
X007607Y003795D01*
X007629Y003807D01*
X007687Y003849D01*
X007739Y003900D01*
X007781Y003959D01*
X007814Y004023D01*
X007836Y004092D01*
X007848Y004164D01*
X007848Y004460D01*
X007428Y004460D01*
X007428Y004540D01*
X007848Y004540D01*
X007848Y004836D01*
X007836Y004908D01*
X007814Y004977D01*
X007781Y005041D01*
X007739Y005100D01*
X007687Y005151D01*
X007629Y005193D01*
X007564Y005226D01*
X007496Y005249D01*
X007428Y005259D01*
X007428Y004540D01*
X007348Y004540D01*
X007348Y005259D01*
X007280Y005249D01*
X007211Y005226D01*
X007147Y005193D01*
X007088Y005151D01*
X007037Y005100D01*
X006994Y005041D01*
X006961Y004977D01*
X006939Y004908D01*
X006928Y004836D01*
X006928Y004540D01*
X007348Y004540D01*
X007348Y004460D01*
X006928Y004460D01*
X006928Y004164D01*
X006939Y004092D01*
X006961Y004023D01*
X006994Y003959D01*
X007037Y003900D01*
X007088Y003849D01*
X007147Y003807D01*
X007169Y003795D01*
X006718Y003795D01*
X006829Y003905D01*
X006908Y004097D01*
X006908Y004903D01*
X006829Y005095D01*
X006682Y005241D01*
X006491Y005320D01*
X006284Y005320D01*
X006093Y005241D01*
X005947Y005095D01*
X005868Y004903D01*
X005868Y004097D01*
X005947Y003905D01*
X006057Y003795D01*
X004997Y003795D01*
X005197Y003995D01*
X005326Y004307D01*
X005326Y004645D01*
X005197Y004958D01*
X004958Y005197D01*
X004645Y005326D01*
X004307Y005326D01*
X003995Y005197D01*
X003795Y004997D01*
X003795Y012307D01*
X003905Y012197D01*
X004097Y012118D01*
X004903Y012118D01*
X005095Y012197D01*
X005241Y012343D01*
X005320Y012534D01*
X005320Y012741D01*
X005241Y012932D01*
X005095Y013079D01*
X004903Y013158D01*
X004097Y013158D01*
X003905Y013079D01*
X003795Y012968D01*
X003795Y013419D01*
X003807Y013397D01*
X003849Y013338D01*
X003900Y013287D01*
X003959Y013244D01*
X004023Y013211D01*
X004092Y013189D01*
X004164Y013178D01*
X004460Y013178D01*
X004460Y013598D01*
X004540Y013598D01*
X004540Y013678D01*
X004460Y013678D01*
X004460Y014098D01*
X004164Y014098D01*
X004092Y014086D01*
X004023Y014064D01*
X003959Y014031D01*
X003900Y013989D01*
X003849Y013937D01*
X003807Y013879D01*
X003795Y013857D01*
X003795Y021278D01*
X003995Y021079D01*
X004307Y020949D01*
X004645Y020949D01*
X004958Y021079D01*
X005197Y021318D01*
X005326Y021630D01*
X005326Y021968D01*
X005197Y022281D01*
X005032Y022445D01*
X012272Y022445D01*
X012197Y022370D01*
X012118Y022179D01*
X012118Y021372D01*
X012197Y021181D01*
X012343Y021035D01*
X012534Y020956D01*
X012741Y020956D01*
X012932Y021035D01*
X013079Y021181D01*
X013158Y021372D01*
X013158Y022179D01*
X013079Y022370D01*
X013004Y022445D01*
X013364Y022445D01*
X013338Y022426D01*
X013287Y022375D01*
X013244Y022317D01*
X013211Y022252D01*
X013189Y022183D01*
X013178Y022112D01*
X013178Y021816D01*
X013598Y021816D01*
X013598Y021736D01*
X013178Y021736D01*
X013178Y021439D01*
X013189Y021368D01*
X013211Y021299D01*
X013244Y021234D01*
X013287Y021176D01*
X013338Y021125D01*
X013397Y021082D01*
X013461Y021049D01*
X013530Y021027D01*
X013598Y021016D01*
X013598Y021736D01*
X013678Y021736D01*
X013678Y021816D01*
X014098Y021816D01*
X014098Y022112D01*
X014086Y022183D01*
X014064Y022252D01*
X014031Y022317D01*
X013989Y022375D01*
X013937Y022426D01*
X013912Y022445D01*
X018410Y022445D01*
X018354Y022390D01*
X018275Y022199D01*
X018275Y021671D01*
X016229Y019625D01*
X013650Y019625D01*
X013610Y019666D01*
X013471Y019724D01*
X013320Y019724D01*
X013181Y019666D01*
X013074Y019560D01*
X013017Y019421D01*
X013017Y019270D01*
X013074Y019131D01*
X013110Y019095D01*
X009236Y019095D01*
X009125Y019050D01*
X009041Y018965D01*
X009021Y018917D01*
X007674Y017570D01*
X007625Y017550D01*
X007541Y017465D01*
X007495Y017355D01*
X007495Y011420D01*
X006671Y010595D01*
X006531Y010595D01*
X006390Y010736D01*
X006247Y010795D01*
X006390Y010854D01*
X006536Y011001D01*
X006615Y011192D01*
X006615Y011399D01*
X006536Y011590D01*
X006390Y011736D01*
X006199Y011815D01*
X005392Y011815D01*
X005201Y011736D01*
X005054Y011590D01*
X004975Y011399D01*
X004975Y011192D01*
X005054Y011001D01*
X005201Y010854D01*
X005344Y010795D01*
X005201Y010736D01*
X005054Y010590D01*
X004975Y010399D01*
X004975Y010192D01*
X005054Y010001D01*
X005201Y009854D01*
X005392Y009775D01*
X006199Y009775D01*
X006390Y009854D01*
X006531Y009995D01*
X006855Y009995D01*
X006965Y010041D01*
X007965Y011041D01*
X008050Y011125D01*
X008095Y011236D01*
X008095Y017199D01*
X009391Y018495D01*
X017355Y018495D01*
X017465Y018541D01*
X018920Y019995D01*
X020171Y019995D01*
X020465Y019701D01*
X020295Y019531D01*
X020011Y019815D01*
X019580Y019815D01*
X019275Y019511D01*
X019275Y019080D01*
X019560Y018795D01*
X019275Y018511D01*
X019275Y018080D01*
X019560Y017795D01*
X019275Y017511D01*
X019275Y017080D01*
X019560Y016795D01*
X019275Y016511D01*
X019275Y016080D01*
X019580Y015775D01*
X020011Y015775D01*
X020295Y016060D01*
X020580Y015775D01*
X021011Y015775D01*
X021315Y016080D01*
X021315Y016511D01*
X021031Y016795D01*
X021315Y017080D01*
X021315Y017511D01*
X021031Y017795D01*
X021315Y018080D01*
X021315Y018511D01*
X021031Y018795D01*
X021315Y019080D01*
X021315Y019511D01*
X021095Y019731D01*
X021095Y019855D01*
X021050Y019965D01*
X020465Y020550D01*
X020355Y020595D01*
X018736Y020595D01*
X018625Y020550D01*
X018541Y020465D01*
X017171Y019095D01*
X016473Y019095D01*
X016504Y019108D01*
X018476Y021080D01*
X018501Y021054D01*
X018692Y020975D01*
X018899Y020975D01*
X019090Y021054D01*
X019236Y021201D01*
X019315Y021392D01*
X019315Y022199D01*
X019236Y022390D01*
X019181Y022445D01*
X019495Y022445D01*
X019444Y022395D01*
X019402Y022336D01*
X019369Y022272D01*
X019347Y022203D01*
X019335Y022131D01*
X019335Y021835D01*
X019755Y021835D01*
X019755Y021755D01*
X019835Y021755D01*
X019835Y021036D01*
X019903Y021047D01*
X019972Y021069D01*
X020036Y021102D01*
X020095Y021144D01*
X020146Y021196D01*
X020189Y021254D01*
X020222Y021319D01*
X020244Y021388D01*
X020255Y021459D01*
X020255Y021755D01*
X019835Y021755D01*
X019835Y021835D01*
X020255Y021835D01*
X020255Y022131D01*
X020244Y022203D01*
X020222Y022272D01*
X020189Y022336D01*
X020146Y022395D01*
X020096Y022445D01*
X021243Y022445D01*
X021079Y022281D01*
X020949Y021968D01*
X020949Y021630D01*
X021079Y021318D01*
X021318Y021079D01*
X021630Y020949D01*
X021968Y020949D01*
X022281Y021079D01*
X022395Y021193D01*
X022395Y014054D01*
X022370Y014079D01*
X022395Y014079D01*
X022370Y014079D02*
X022179Y014158D01*
X021372Y014158D01*
X021341Y014145D01*
X020954Y014533D01*
X020851Y014575D01*
X017050Y014575D01*
X017010Y014616D01*
X016871Y014674D01*
X016720Y014674D01*
X016581Y014616D01*
X016474Y014510D01*
X016417Y014371D01*
X016417Y014220D01*
X016474Y014081D01*
X016581Y013974D01*
X016720Y013917D01*
X016871Y013917D01*
X017010Y013974D01*
X017050Y014015D01*
X020679Y014015D01*
X020956Y013739D01*
X020956Y013534D01*
X021035Y013343D01*
X021181Y013197D01*
X021372Y013118D01*
X022179Y013118D01*
X022370Y013197D01*
X022395Y013222D01*
X022395Y012969D01*
X022375Y012989D01*
X022317Y013031D01*
X022252Y013064D01*
X022183Y013086D01*
X022112Y013098D01*
X021816Y013098D01*
X021816Y012678D01*
X021736Y012678D01*
X021736Y013098D01*
X021439Y013098D01*
X021368Y013086D01*
X021299Y013064D01*
X021234Y013031D01*
X021176Y012989D01*
X021125Y012937D01*
X021082Y012879D01*
X021049Y012814D01*
X021027Y012746D01*
X021016Y012678D01*
X021736Y012678D01*
X021736Y012598D01*
X021016Y012598D01*
X021027Y012530D01*
X021049Y012461D01*
X021082Y012397D01*
X021125Y012338D01*
X021176Y012287D01*
X021234Y012244D01*
X021299Y012211D01*
X021368Y012189D01*
X021439Y012178D01*
X021736Y012183D02*
X021816Y012183D01*
X021816Y012301D02*
X021736Y012301D01*
X021736Y012420D02*
X021816Y012420D01*
X021816Y012538D02*
X021736Y012538D01*
X021736Y012657D02*
X015770Y012657D01*
X015770Y012775D02*
X021037Y012775D01*
X021093Y012894D02*
X015770Y012894D01*
X015770Y013012D02*
X021208Y013012D01*
X021341Y013131D02*
X015770Y013131D01*
X015770Y013249D02*
X021129Y013249D01*
X021025Y013368D02*
X015770Y013368D01*
X015770Y013486D02*
X020975Y013486D01*
X020956Y013605D02*
X015770Y013605D01*
X015770Y013723D02*
X020956Y013723D01*
X020853Y013842D02*
X015770Y013842D01*
X015770Y013960D02*
X016615Y013960D01*
X016477Y014079D02*
X015770Y014079D01*
X015770Y014197D02*
X016426Y014197D01*
X016417Y014316D02*
X015770Y014316D01*
X015770Y014434D02*
X016443Y014434D01*
X016518Y014553D02*
X015770Y014553D01*
X015769Y014671D02*
X016714Y014671D01*
X016876Y014671D02*
X022395Y014671D01*
X022395Y014553D02*
X020905Y014553D01*
X021052Y014434D02*
X022395Y014434D01*
X022395Y014316D02*
X021171Y014316D01*
X021289Y014197D02*
X022395Y014197D01*
X022395Y014790D02*
X015706Y014790D01*
X015588Y014908D02*
X022395Y014908D01*
X022395Y015027D02*
X015469Y015027D01*
X014493Y014060D02*
X014493Y013952D01*
X014568Y013877D01*
X014564Y013869D01*
X014553Y013828D01*
X014553Y013611D01*
X014948Y013611D01*
X014948Y013491D01*
X014553Y013491D01*
X014553Y013274D01*
X014564Y013234D01*
X014585Y013197D01*
X014614Y013167D01*
X014651Y013146D01*
X014692Y013135D01*
X014754Y013135D01*
X014749Y013119D01*
X014749Y012920D01*
X015068Y012920D01*
X015068Y012843D01*
X014749Y012843D01*
X014749Y012781D01*
X014686Y012808D01*
X014543Y012808D01*
X014411Y012753D01*
X014310Y012652D01*
X014255Y012520D01*
X014255Y012377D01*
X014310Y012246D01*
X014411Y012145D01*
X014451Y012128D01*
X012120Y012128D01*
X012160Y012145D01*
X012261Y012246D01*
X012315Y012377D01*
X012315Y012520D01*
X012261Y012652D01*
X012160Y012753D01*
X012028Y012808D01*
X011885Y012808D01*
X011819Y012780D01*
X011806Y012793D01*
X011811Y012800D01*
X011821Y012841D01*
X011821Y013040D01*
X011503Y013040D01*
X011503Y013117D01*
X011821Y013117D01*
X011821Y013199D01*
X011885Y013173D01*
X012028Y013173D01*
X012160Y013227D01*
X012261Y013328D01*
X012315Y013460D01*
X012315Y013603D01*
X012261Y013735D01*
X012160Y013836D01*
X012028Y013890D01*
X011885Y013890D01*
X011881Y013889D01*
X011881Y013997D01*
X011854Y014024D01*
X011881Y014051D01*
X011881Y014418D01*
X011905Y014394D01*
X012484Y014394D01*
X012484Y014346D01*
X012538Y014214D01*
X012639Y014113D01*
X012771Y014059D01*
X012914Y014059D01*
X013046Y014113D01*
X013147Y014214D01*
X013201Y014346D01*
X013201Y014406D01*
X013318Y014523D01*
X013318Y014541D01*
X014080Y014541D01*
X014059Y014489D01*
X014059Y014346D01*
X014113Y014214D01*
X014214Y014113D01*
X014346Y014059D01*
X014489Y014059D01*
X014493Y014060D01*
X014493Y013960D02*
X011881Y013960D01*
X011881Y014079D02*
X012722Y014079D01*
X012555Y014197D02*
X011881Y014197D01*
X011881Y014316D02*
X012496Y014316D01*
X012963Y014079D02*
X014297Y014079D01*
X014130Y014197D02*
X013130Y014197D01*
X013189Y014316D02*
X014071Y014316D01*
X014059Y014434D02*
X013230Y014434D01*
X013272Y015145D02*
X022395Y015145D01*
X022395Y015264D02*
X011881Y015264D01*
X011881Y015382D02*
X022395Y015382D01*
X022395Y015501D02*
X011877Y015501D01*
X011821Y015619D02*
X022395Y015619D01*
X022395Y015738D02*
X011821Y015738D01*
X011821Y015897D02*
X011503Y015897D01*
X011503Y016235D01*
X011682Y016235D01*
X011723Y016224D01*
X011760Y016203D01*
X011789Y016173D01*
X011811Y016137D01*
X011821Y016096D01*
X011821Y015897D01*
X011821Y015975D02*
X019380Y015975D01*
X019275Y016093D02*
X011821Y016093D01*
X011744Y016212D02*
X019275Y016212D01*
X019275Y016330D02*
X008095Y016330D01*
X008095Y016212D02*
X011185Y016212D01*
X011108Y016093D02*
X008095Y016093D01*
X008095Y015975D02*
X011108Y015975D01*
X011108Y015738D02*
X008095Y015738D01*
X008095Y015856D02*
X011426Y015856D01*
X011503Y015856D02*
X019499Y015856D01*
X020092Y015856D02*
X020499Y015856D01*
X020380Y015975D02*
X020210Y015975D01*
X019450Y016686D02*
X008095Y016686D01*
X008095Y016804D02*
X019551Y016804D01*
X019432Y016923D02*
X008095Y016923D01*
X008095Y017041D02*
X019314Y017041D01*
X019275Y017160D02*
X008095Y017160D01*
X008174Y017278D02*
X019275Y017278D01*
X019275Y017397D02*
X008293Y017397D01*
X008411Y017515D02*
X019280Y017515D01*
X019398Y017634D02*
X008530Y017634D01*
X008648Y017752D02*
X019517Y017752D01*
X019484Y017871D02*
X008767Y017871D01*
X008885Y017989D02*
X019366Y017989D01*
X019275Y018108D02*
X009004Y018108D01*
X009122Y018226D02*
X019275Y018226D01*
X019275Y018345D02*
X009241Y018345D01*
X009359Y018463D02*
X019275Y018463D01*
X019346Y018582D02*
X017506Y018582D01*
X017625Y018700D02*
X019465Y018700D01*
X019536Y018819D02*
X017743Y018819D01*
X017862Y018937D02*
X019418Y018937D01*
X019299Y019056D02*
X017980Y019056D01*
X018099Y019174D02*
X019275Y019174D01*
X019275Y019293D02*
X018217Y019293D01*
X018336Y019411D02*
X019275Y019411D01*
X019294Y019530D02*
X018454Y019530D01*
X018573Y019648D02*
X019413Y019648D01*
X019531Y019767D02*
X018691Y019767D01*
X018810Y019885D02*
X020281Y019885D01*
X020399Y019767D02*
X020059Y019767D01*
X020178Y019648D02*
X020413Y019648D01*
X020893Y020122D02*
X022395Y020122D01*
X022395Y020004D02*
X021011Y020004D01*
X021083Y019885D02*
X022395Y019885D01*
X022395Y019767D02*
X021095Y019767D01*
X021178Y019648D02*
X021498Y019648D01*
X021605Y019755D02*
X021335Y019486D01*
X021335Y019335D01*
X021755Y019335D01*
X021755Y019255D01*
X021835Y019255D01*
X021835Y018835D01*
X021986Y018835D01*
X022255Y019105D01*
X022255Y019255D01*
X021835Y019255D01*
X021835Y019335D01*
X022255Y019335D01*
X022255Y019486D01*
X021986Y019755D01*
X021835Y019755D01*
X021835Y019335D01*
X021755Y019335D01*
X021755Y019755D01*
X021605Y019755D01*
X021755Y019648D02*
X021835Y019648D01*
X021835Y019530D02*
X021755Y019530D01*
X021755Y019411D02*
X021835Y019411D01*
X021835Y019293D02*
X022395Y019293D01*
X022395Y019411D02*
X022255Y019411D01*
X022211Y019530D02*
X022395Y019530D01*
X022395Y019648D02*
X022093Y019648D01*
X021755Y019293D02*
X021315Y019293D01*
X021335Y019255D02*
X021335Y019105D01*
X021605Y018835D01*
X021755Y018835D01*
X021755Y019255D01*
X021335Y019255D01*
X021335Y019174D02*
X021315Y019174D01*
X021291Y019056D02*
X021384Y019056D01*
X021503Y018937D02*
X021173Y018937D01*
X021054Y018819D02*
X022395Y018819D01*
X022395Y018937D02*
X022088Y018937D01*
X022206Y019056D02*
X022395Y019056D01*
X022395Y019174D02*
X022255Y019174D01*
X021835Y019174D02*
X021755Y019174D01*
X021755Y019056D02*
X021835Y019056D01*
X021835Y018937D02*
X021755Y018937D01*
X021755Y018755D02*
X021605Y018755D01*
X021335Y018486D01*
X021335Y018335D01*
X021755Y018335D01*
X021755Y018255D01*
X021835Y018255D01*
X021835Y017835D01*
X021986Y017835D01*
X022255Y018105D01*
X022255Y018255D01*
X021835Y018255D01*
X021835Y018335D01*
X022255Y018335D01*
X022255Y018486D01*
X021986Y018755D01*
X021835Y018755D01*
X021835Y018335D01*
X021755Y018335D01*
X021755Y018755D01*
X021755Y018700D02*
X021835Y018700D01*
X021835Y018582D02*
X021755Y018582D01*
X021755Y018463D02*
X021835Y018463D01*
X021835Y018345D02*
X021755Y018345D01*
X021755Y018255D02*
X021335Y018255D01*
X021335Y018105D01*
X021605Y017835D01*
X021755Y017835D01*
X021755Y018255D01*
X021755Y018226D02*
X021835Y018226D01*
X021835Y018108D02*
X021755Y018108D01*
X021755Y017989D02*
X021835Y017989D01*
X021835Y017871D02*
X021755Y017871D01*
X021755Y017755D02*
X021605Y017755D01*
X021335Y017486D01*
X021335Y017335D01*
X021755Y017335D01*
X021755Y017255D01*
X021835Y017255D01*
X021835Y016835D01*
X021986Y016835D01*
X022255Y017105D01*
X022255Y017255D01*
X021835Y017255D01*
X021835Y017335D01*
X022255Y017335D01*
X022255Y017486D01*
X021986Y017755D01*
X021835Y017755D01*
X021835Y017335D01*
X021755Y017335D01*
X021755Y017755D01*
X021755Y017752D02*
X021835Y017752D01*
X021835Y017634D02*
X021755Y017634D01*
X021755Y017515D02*
X021835Y017515D01*
X021835Y017397D02*
X021755Y017397D01*
X021755Y017278D02*
X021315Y017278D01*
X021335Y017255D02*
X021335Y017105D01*
X021605Y016835D01*
X021755Y016835D01*
X021755Y017255D01*
X021335Y017255D01*
X021335Y017160D02*
X021315Y017160D01*
X021277Y017041D02*
X021399Y017041D01*
X021517Y016923D02*
X021158Y016923D01*
X021040Y016804D02*
X022395Y016804D01*
X022395Y016686D02*
X022055Y016686D01*
X021986Y016755D02*
X021835Y016755D01*
X021835Y016335D01*
X022255Y016335D01*
X022255Y016486D01*
X021986Y016755D01*
X021835Y016686D02*
X021755Y016686D01*
X021755Y016755D02*
X021605Y016755D01*
X021335Y016486D01*
X021335Y016335D01*
X021755Y016335D01*
X021755Y016255D01*
X021835Y016255D01*
X021835Y015835D01*
X021986Y015835D01*
X022255Y016105D01*
X022255Y016255D01*
X021835Y016255D01*
X021835Y016335D01*
X021755Y016335D01*
X021755Y016755D01*
X021755Y016923D02*
X021835Y016923D01*
X021835Y017041D02*
X021755Y017041D01*
X021755Y017160D02*
X021835Y017160D01*
X021835Y017278D02*
X022395Y017278D01*
X022395Y017160D02*
X022255Y017160D01*
X022192Y017041D02*
X022395Y017041D01*
X022395Y016923D02*
X022073Y016923D01*
X022174Y016567D02*
X022395Y016567D01*
X022395Y016449D02*
X022255Y016449D01*
X022395Y016330D02*
X021835Y016330D01*
X021755Y016330D02*
X021315Y016330D01*
X021335Y016255D02*
X021335Y016105D01*
X021605Y015835D01*
X021755Y015835D01*
X021755Y016255D01*
X021335Y016255D01*
X021335Y016212D02*
X021315Y016212D01*
X021315Y016093D02*
X021347Y016093D01*
X021465Y015975D02*
X021210Y015975D01*
X021092Y015856D02*
X021584Y015856D01*
X021755Y015856D02*
X021835Y015856D01*
X021835Y015975D02*
X021755Y015975D01*
X021755Y016093D02*
X021835Y016093D01*
X021835Y016212D02*
X021755Y016212D01*
X021755Y016449D02*
X021835Y016449D01*
X021835Y016567D02*
X021755Y016567D01*
X021535Y016686D02*
X021140Y016686D01*
X021259Y016567D02*
X021417Y016567D01*
X021335Y016449D02*
X021315Y016449D01*
X022007Y015856D02*
X022395Y015856D01*
X022395Y015975D02*
X022125Y015975D01*
X022244Y016093D02*
X022395Y016093D01*
X022395Y016212D02*
X022255Y016212D01*
X022255Y017397D02*
X022395Y017397D01*
X022395Y017515D02*
X022226Y017515D01*
X022107Y017634D02*
X022395Y017634D01*
X022395Y017752D02*
X021989Y017752D01*
X022021Y017871D02*
X022395Y017871D01*
X022395Y017989D02*
X022140Y017989D01*
X022255Y018108D02*
X022395Y018108D01*
X022395Y018226D02*
X022255Y018226D01*
X022255Y018345D02*
X022395Y018345D01*
X022395Y018463D02*
X022255Y018463D01*
X022159Y018582D02*
X022395Y018582D01*
X022395Y018700D02*
X022041Y018700D01*
X021550Y018700D02*
X021126Y018700D01*
X021244Y018582D02*
X021431Y018582D01*
X021335Y018463D02*
X021315Y018463D01*
X021315Y018345D02*
X021335Y018345D01*
X021335Y018226D02*
X021315Y018226D01*
X021315Y018108D02*
X021335Y018108D01*
X021225Y017989D02*
X021451Y017989D01*
X021569Y017871D02*
X021106Y017871D01*
X021074Y017752D02*
X021602Y017752D01*
X021483Y017634D02*
X021192Y017634D01*
X021311Y017515D02*
X021365Y017515D01*
X021335Y017397D02*
X021315Y017397D01*
X021315Y019411D02*
X021335Y019411D01*
X021296Y019530D02*
X021379Y019530D01*
X020774Y020241D02*
X022395Y020241D01*
X022395Y020359D02*
X020656Y020359D01*
X020537Y020478D02*
X022395Y020478D01*
X022395Y020596D02*
X017992Y020596D01*
X017874Y020478D02*
X018554Y020478D01*
X018435Y020359D02*
X017755Y020359D01*
X017637Y020241D02*
X018317Y020241D01*
X018198Y020122D02*
X017518Y020122D01*
X017400Y020004D02*
X018080Y020004D01*
X017961Y019885D02*
X017281Y019885D01*
X017163Y019767D02*
X017843Y019767D01*
X017724Y019648D02*
X017044Y019648D01*
X016926Y019530D02*
X017606Y019530D01*
X017487Y019411D02*
X016807Y019411D01*
X016689Y019293D02*
X017369Y019293D01*
X017250Y019174D02*
X016570Y019174D01*
X016345Y019345D02*
X018795Y021795D01*
X018275Y021781D02*
X013678Y021781D01*
X013678Y021736D02*
X014098Y021736D01*
X014098Y021439D01*
X014086Y021368D01*
X014064Y021299D01*
X014031Y021234D01*
X013989Y021176D01*
X013937Y021125D01*
X013879Y021082D01*
X013814Y021049D01*
X013746Y021027D01*
X013678Y021016D01*
X013678Y021736D01*
X013678Y021663D02*
X013598Y021663D01*
X013598Y021781D02*
X013158Y021781D01*
X013158Y021663D02*
X013178Y021663D01*
X013178Y021544D02*
X013158Y021544D01*
X013158Y021426D02*
X013180Y021426D01*
X013209Y021307D02*
X013131Y021307D01*
X013082Y021189D02*
X013278Y021189D01*
X013420Y021070D02*
X012968Y021070D01*
X013598Y021070D02*
X013678Y021070D01*
X013678Y021189D02*
X013598Y021189D01*
X013598Y021307D02*
X013678Y021307D01*
X013678Y021426D02*
X013598Y021426D01*
X013598Y021544D02*
X013678Y021544D01*
X014098Y021544D02*
X018148Y021544D01*
X018030Y021426D02*
X014096Y021426D01*
X014067Y021307D02*
X017911Y021307D01*
X017793Y021189D02*
X013998Y021189D01*
X013856Y021070D02*
X017674Y021070D01*
X017556Y020952D02*
X004652Y020952D01*
X004938Y021070D02*
X012308Y021070D01*
X012194Y021189D02*
X005068Y021189D01*
X005186Y021307D02*
X012145Y021307D01*
X012118Y021426D02*
X005242Y021426D01*
X005291Y021544D02*
X012118Y021544D01*
X012118Y021663D02*
X005326Y021663D01*
X005326Y021781D02*
X012118Y021781D01*
X012118Y021900D02*
X005326Y021900D01*
X005306Y022018D02*
X012118Y022018D01*
X012118Y022137D02*
X005256Y022137D01*
X005207Y022255D02*
X012149Y022255D01*
X012201Y022374D02*
X005104Y022374D01*
X004015Y021070D02*
X003795Y021070D01*
X003795Y020952D02*
X004301Y020952D01*
X003885Y021189D02*
X003795Y021189D01*
X003795Y020833D02*
X017437Y020833D01*
X017319Y020715D02*
X003795Y020715D01*
X003795Y020596D02*
X017200Y020596D01*
X017082Y020478D02*
X003795Y020478D01*
X003795Y020359D02*
X016963Y020359D01*
X016845Y020241D02*
X003795Y020241D01*
X003795Y020122D02*
X016726Y020122D01*
X016608Y020004D02*
X003795Y020004D01*
X003795Y019885D02*
X016489Y019885D01*
X016371Y019767D02*
X003795Y019767D01*
X003795Y019648D02*
X013163Y019648D01*
X013062Y019530D02*
X003795Y019530D01*
X003795Y019411D02*
X013017Y019411D01*
X013017Y019293D02*
X003795Y019293D01*
X003795Y019174D02*
X013056Y019174D01*
X013395Y019345D02*
X016345Y019345D01*
X016252Y019648D02*
X013627Y019648D01*
X014098Y021663D02*
X018267Y021663D01*
X018275Y021900D02*
X014098Y021900D01*
X014098Y022018D02*
X018275Y022018D01*
X018275Y022137D02*
X014094Y022137D01*
X014062Y022255D02*
X018299Y022255D01*
X018348Y022374D02*
X013990Y022374D01*
X013286Y022374D02*
X013075Y022374D01*
X013126Y022255D02*
X013213Y022255D01*
X013182Y022137D02*
X013158Y022137D01*
X013158Y022018D02*
X013178Y022018D01*
X013178Y021900D02*
X013158Y021900D01*
X009295Y018795D02*
X007795Y017295D01*
X007513Y017397D02*
X003795Y017397D01*
X003795Y017515D02*
X007591Y017515D01*
X007738Y017634D02*
X003795Y017634D01*
X003795Y017752D02*
X007856Y017752D01*
X007975Y017871D02*
X003795Y017871D01*
X003795Y017989D02*
X008093Y017989D01*
X008212Y018108D02*
X003795Y018108D01*
X003795Y018226D02*
X008330Y018226D01*
X008449Y018345D02*
X003795Y018345D01*
X003795Y018463D02*
X008567Y018463D01*
X008686Y018582D02*
X003795Y018582D01*
X003795Y018700D02*
X008804Y018700D01*
X008923Y018819D02*
X003795Y018819D01*
X003795Y018937D02*
X009029Y018937D01*
X009140Y019056D02*
X003795Y019056D01*
X003795Y017278D02*
X007495Y017278D01*
X007495Y017160D02*
X003795Y017160D01*
X003795Y017041D02*
X007495Y017041D01*
X007495Y016923D02*
X003795Y016923D01*
X003795Y016804D02*
X007495Y016804D01*
X007495Y016686D02*
X003795Y016686D01*
X003795Y016567D02*
X007495Y016567D01*
X007495Y016449D02*
X003795Y016449D01*
X003795Y016330D02*
X007495Y016330D01*
X007495Y016212D02*
X003795Y016212D01*
X003795Y016093D02*
X007495Y016093D01*
X007495Y015975D02*
X003795Y015975D01*
X003795Y015856D02*
X007495Y015856D01*
X007495Y015738D02*
X003795Y015738D01*
X003795Y015619D02*
X007495Y015619D01*
X007495Y015501D02*
X003795Y015501D01*
X003795Y015382D02*
X007495Y015382D01*
X007495Y015264D02*
X003795Y015264D01*
X003795Y015145D02*
X007495Y015145D01*
X007495Y015027D02*
X003795Y015027D01*
X003795Y014908D02*
X007495Y014908D01*
X007495Y014790D02*
X003795Y014790D01*
X003795Y014671D02*
X007495Y014671D01*
X007495Y014553D02*
X003795Y014553D01*
X003795Y014434D02*
X007495Y014434D01*
X007495Y014316D02*
X003795Y014316D01*
X003795Y014197D02*
X007495Y014197D01*
X007495Y014079D02*
X004931Y014079D01*
X004908Y014086D02*
X004836Y014098D01*
X004540Y014098D01*
X004540Y013678D01*
X005259Y013678D01*
X005249Y013746D01*
X005226Y013814D01*
X005193Y013879D01*
X005151Y013937D01*
X005100Y013989D01*
X005041Y014031D01*
X004977Y014064D01*
X004908Y014086D01*
X005128Y013960D02*
X007495Y013960D01*
X007495Y013842D02*
X005212Y013842D01*
X005252Y013723D02*
X007495Y013723D01*
X007495Y013605D02*
X004540Y013605D01*
X004540Y013598D02*
X005259Y013598D01*
X005249Y013530D01*
X005226Y013461D01*
X005193Y013397D01*
X005151Y013338D01*
X005100Y013287D01*
X005041Y013244D01*
X004977Y013211D01*
X004908Y013189D01*
X004836Y013178D01*
X004540Y013178D01*
X004540Y013598D01*
X004540Y013486D02*
X004460Y013486D01*
X004460Y013368D02*
X004540Y013368D01*
X004540Y013249D02*
X004460Y013249D01*
X004031Y013131D02*
X003795Y013131D01*
X003795Y013249D02*
X003952Y013249D01*
X003828Y013368D02*
X003795Y013368D01*
X003795Y013012D02*
X003839Y013012D01*
X003795Y012301D02*
X003801Y012301D01*
X003795Y012183D02*
X003940Y012183D01*
X003795Y012064D02*
X007495Y012064D01*
X007495Y011946D02*
X003795Y011946D01*
X003795Y011827D02*
X007495Y011827D01*
X007495Y011709D02*
X006417Y011709D01*
X006536Y011590D02*
X007495Y011590D01*
X007495Y011472D02*
X006585Y011472D01*
X006615Y011353D02*
X007429Y011353D01*
X007311Y011235D02*
X006615Y011235D01*
X006584Y011116D02*
X007192Y011116D01*
X007074Y010998D02*
X006533Y010998D01*
X006415Y010879D02*
X006955Y010879D01*
X006837Y010761D02*
X006330Y010761D01*
X006484Y010642D02*
X006718Y010642D01*
X007093Y010168D02*
X009022Y010168D01*
X009141Y010287D02*
X007211Y010287D01*
X007330Y010405D02*
X009259Y010405D01*
X009378Y010524D02*
X007448Y010524D01*
X007567Y010642D02*
X009496Y010642D01*
X009615Y010761D02*
X007685Y010761D01*
X007804Y010879D02*
X009733Y010879D01*
X009852Y010998D02*
X007922Y010998D01*
X008041Y011116D02*
X009970Y011116D01*
X010092Y011235D02*
X008095Y011235D01*
X008095Y011353D02*
X010421Y011353D01*
X010670Y011353D02*
X011048Y011353D01*
X011048Y011235D02*
X010841Y011235D01*
X010905Y011116D02*
X011048Y011116D01*
X011048Y010998D02*
X010924Y010998D01*
X010907Y010879D02*
X011048Y010879D01*
X011109Y010761D02*
X010846Y010761D01*
X010682Y010642D02*
X022395Y010642D01*
X022395Y010524D02*
X010452Y010524D01*
X010409Y010642D02*
X010296Y010642D01*
X010509Y010405D02*
X022395Y010405D01*
X022395Y010287D02*
X010524Y010287D01*
X010502Y010168D02*
X022395Y010168D01*
X022395Y010050D02*
X010435Y010050D01*
X010255Y009931D02*
X022395Y009931D01*
X022395Y009813D02*
X010103Y009813D01*
X010002Y009694D02*
X022395Y009694D01*
X022395Y009576D02*
X009901Y009576D01*
X009800Y009457D02*
X022395Y009457D01*
X022395Y009339D02*
X009700Y009339D01*
X009599Y009220D02*
X020485Y009220D01*
X020580Y009315D02*
X020275Y009011D01*
X020275Y008580D01*
X020560Y008295D01*
X020275Y008011D01*
X020275Y007580D01*
X020560Y007295D01*
X020275Y007011D01*
X020275Y006580D01*
X020580Y006275D01*
X021011Y006275D01*
X021315Y006580D01*
X021315Y007011D01*
X021031Y007295D01*
X021295Y007560D01*
X021580Y007275D01*
X022011Y007275D01*
X022315Y007580D01*
X022315Y008011D01*
X022031Y008295D01*
X022315Y008580D01*
X022315Y009011D01*
X022011Y009315D01*
X021580Y009315D01*
X021295Y009031D01*
X021011Y009315D01*
X020580Y009315D01*
X020366Y009102D02*
X017931Y009102D01*
X017899Y009115D02*
X017692Y009115D01*
X017501Y009036D01*
X017354Y008890D01*
X017295Y008747D01*
X017236Y008890D01*
X017090Y009036D01*
X016899Y009115D01*
X016692Y009115D01*
X016501Y009036D01*
X016354Y008890D01*
X016295Y008747D01*
X016236Y008890D01*
X016090Y009036D01*
X015899Y009115D01*
X015692Y009115D01*
X015501Y009036D01*
X015354Y008890D01*
X015295Y008747D01*
X015236Y008890D01*
X015090Y009036D01*
X014899Y009115D01*
X014692Y009115D01*
X014501Y009036D01*
X014354Y008890D01*
X014295Y008747D01*
X014236Y008890D01*
X014090Y009036D01*
X013899Y009115D01*
X013692Y009115D01*
X013501Y009036D01*
X013354Y008890D01*
X013295Y008747D01*
X013236Y008890D01*
X013090Y009036D01*
X012899Y009115D01*
X012692Y009115D01*
X012501Y009036D01*
X012354Y008890D01*
X012295Y008747D01*
X012236Y008890D01*
X012090Y009036D01*
X011899Y009115D01*
X011692Y009115D01*
X011501Y009036D01*
X011354Y008890D01*
X011275Y008699D01*
X011275Y007892D01*
X011354Y007701D01*
X011501Y007554D01*
X011692Y007475D01*
X011899Y007475D01*
X012090Y007554D01*
X012236Y007701D01*
X012295Y007844D01*
X012354Y007701D01*
X012501Y007554D01*
X012692Y007475D01*
X012899Y007475D01*
X013090Y007554D01*
X013236Y007701D01*
X013295Y007844D01*
X013354Y007701D01*
X013501Y007554D01*
X013692Y007475D01*
X013899Y007475D01*
X014090Y007554D01*
X014236Y007701D01*
X014295Y007844D01*
X014354Y007701D01*
X014501Y007554D01*
X014692Y007475D01*
X014899Y007475D01*
X015090Y007554D01*
X015236Y007701D01*
X015295Y007844D01*
X015354Y007701D01*
X015501Y007554D01*
X015692Y007475D01*
X015899Y007475D01*
X016090Y007554D01*
X016236Y007701D01*
X016295Y007844D01*
X016354Y007701D01*
X016501Y007554D01*
X016692Y007475D01*
X016899Y007475D01*
X017090Y007554D01*
X017236Y007701D01*
X017295Y007844D01*
X017354Y007701D01*
X017501Y007554D01*
X017692Y007475D01*
X017899Y007475D01*
X018090Y007554D01*
X018236Y007701D01*
X018315Y007892D01*
X018315Y008699D01*
X018236Y008890D01*
X018090Y009036D01*
X017899Y009115D01*
X017659Y009102D02*
X016931Y009102D01*
X017143Y008983D02*
X017448Y008983D01*
X017344Y008865D02*
X017246Y008865D01*
X016659Y009102D02*
X015931Y009102D01*
X016143Y008983D02*
X016448Y008983D01*
X016344Y008865D02*
X016246Y008865D01*
X015659Y009102D02*
X014931Y009102D01*
X015143Y008983D02*
X015448Y008983D01*
X015344Y008865D02*
X015246Y008865D01*
X014795Y008345D02*
X014795Y008295D01*
X014745Y008295D02*
X014795Y008345D01*
X014344Y008865D02*
X014246Y008865D01*
X014143Y008983D02*
X014448Y008983D01*
X014659Y009102D02*
X013931Y009102D01*
X013659Y009102D02*
X012931Y009102D01*
X013143Y008983D02*
X013448Y008983D01*
X013344Y008865D02*
X013246Y008865D01*
X012659Y009102D02*
X011931Y009102D01*
X012143Y008983D02*
X012448Y008983D01*
X012344Y008865D02*
X012246Y008865D01*
X011659Y009102D02*
X009931Y009102D01*
X010143Y008983D02*
X010547Y008983D01*
X010554Y008989D02*
X010496Y008946D01*
X010444Y008895D01*
X010402Y008836D01*
X010369Y008772D01*
X010347Y008703D01*
X010335Y008631D01*
X010335Y008335D01*
X010755Y008335D01*
X010755Y008255D01*
X010335Y008255D01*
X010335Y007959D01*
X010347Y007888D01*
X010369Y007819D01*
X010402Y007754D01*
X010444Y007696D01*
X010496Y007644D01*
X010554Y007602D01*
X010619Y007569D01*
X010688Y007547D01*
X010755Y007536D01*
X010755Y008255D01*
X010835Y008255D01*
X010835Y007536D01*
X010903Y007547D01*
X010972Y007569D01*
X011036Y007602D01*
X011095Y007644D01*
X011146Y007696D01*
X011189Y007754D01*
X011222Y007819D01*
X011244Y007888D01*
X011255Y007959D01*
X011255Y008255D01*
X010835Y008255D01*
X010835Y008335D01*
X010755Y008335D01*
X010755Y009055D01*
X010688Y009044D01*
X010619Y009022D01*
X010554Y008989D01*
X010422Y008865D02*
X010246Y008865D01*
X010296Y008746D02*
X010361Y008746D01*
X010335Y008628D02*
X010315Y008628D01*
X010315Y008509D02*
X010335Y008509D01*
X010335Y008391D02*
X010315Y008391D01*
X010315Y008272D02*
X010755Y008272D01*
X010835Y008272D02*
X011275Y008272D01*
X011255Y008335D02*
X011255Y008631D01*
X011244Y008703D01*
X011222Y008772D01*
X011189Y008836D01*
X011146Y008895D01*
X011095Y008946D01*
X011036Y008989D01*
X010972Y009022D01*
X010903Y009044D01*
X010835Y009055D01*
X010835Y008335D01*
X011255Y008335D01*
X011255Y008391D02*
X011275Y008391D01*
X011275Y008509D02*
X011255Y008509D01*
X011255Y008628D02*
X011275Y008628D01*
X011295Y008746D02*
X011230Y008746D01*
X011168Y008865D02*
X011344Y008865D01*
X011448Y008983D02*
X011044Y008983D01*
X010835Y008983D02*
X010755Y008983D01*
X010755Y008865D02*
X010835Y008865D01*
X010835Y008746D02*
X010755Y008746D01*
X010755Y008628D02*
X010835Y008628D01*
X010835Y008509D02*
X010755Y008509D01*
X010755Y008391D02*
X010835Y008391D01*
X010835Y008154D02*
X010755Y008154D01*
X010755Y008035D02*
X010835Y008035D01*
X010835Y007917D02*
X010755Y007917D01*
X010755Y007798D02*
X010835Y007798D01*
X010835Y007680D02*
X010755Y007680D01*
X010755Y007561D02*
X010835Y007561D01*
X010948Y007561D02*
X011494Y007561D01*
X011375Y007680D02*
X011130Y007680D01*
X011211Y007798D02*
X011314Y007798D01*
X011275Y007917D02*
X011249Y007917D01*
X011255Y008035D02*
X011275Y008035D01*
X011275Y008154D02*
X011255Y008154D01*
X010642Y007561D02*
X010097Y007561D01*
X010215Y007680D02*
X010460Y007680D01*
X010379Y007798D02*
X010277Y007798D01*
X010315Y007917D02*
X010342Y007917D01*
X010335Y008035D02*
X010315Y008035D01*
X010315Y008154D02*
X010335Y008154D01*
X009494Y007561D02*
X009097Y007561D01*
X009215Y007680D02*
X009375Y007680D01*
X009314Y007798D02*
X009277Y007798D01*
X008494Y007561D02*
X006957Y007561D01*
X006839Y007443D02*
X020412Y007443D01*
X020294Y007561D02*
X018097Y007561D01*
X018215Y007680D02*
X020275Y007680D01*
X020275Y007798D02*
X018277Y007798D01*
X018315Y007917D02*
X020275Y007917D01*
X020300Y008035D02*
X018315Y008035D01*
X018315Y008154D02*
X020418Y008154D01*
X020537Y008272D02*
X018315Y008272D01*
X018315Y008391D02*
X020464Y008391D01*
X020346Y008509D02*
X018315Y008509D01*
X018315Y008628D02*
X020275Y008628D01*
X020275Y008746D02*
X018296Y008746D01*
X018246Y008865D02*
X020275Y008865D01*
X020275Y008983D02*
X018143Y008983D01*
X017314Y007798D02*
X017277Y007798D01*
X017215Y007680D02*
X017375Y007680D01*
X017494Y007561D02*
X017097Y007561D01*
X016494Y007561D02*
X016097Y007561D01*
X016215Y007680D02*
X016375Y007680D01*
X016314Y007798D02*
X016277Y007798D01*
X015494Y007561D02*
X015097Y007561D01*
X015215Y007680D02*
X015375Y007680D01*
X015314Y007798D02*
X015277Y007798D01*
X014494Y007561D02*
X014097Y007561D01*
X014215Y007680D02*
X014375Y007680D01*
X014314Y007798D02*
X014277Y007798D01*
X013494Y007561D02*
X013097Y007561D01*
X013215Y007680D02*
X013375Y007680D01*
X013314Y007798D02*
X013277Y007798D01*
X012494Y007561D02*
X012097Y007561D01*
X012215Y007680D02*
X012375Y007680D01*
X012314Y007798D02*
X012277Y007798D01*
X011802Y006732D02*
X020275Y006732D01*
X020275Y006850D02*
X006380Y006850D01*
X006504Y006969D02*
X020275Y006969D01*
X020352Y007087D02*
X006572Y007087D01*
X006615Y007206D02*
X020470Y007206D01*
X020531Y007324D02*
X006720Y007324D01*
X006295Y007295D02*
X005795Y007295D01*
X006295Y007295D02*
X008295Y009295D01*
X009295Y009295D01*
X010145Y010295D01*
X010245Y010995D02*
X009045Y009795D01*
X008045Y009795D01*
X006595Y008345D01*
X005845Y008345D01*
X005795Y008295D01*
X005755Y008835D02*
X005459Y008835D01*
X005388Y008847D01*
X005319Y008869D01*
X005254Y008902D01*
X005196Y008944D01*
X005144Y008996D01*
X005102Y009054D01*
X005069Y009119D01*
X005047Y009188D01*
X005036Y009255D01*
X005755Y009255D01*
X005835Y009255D01*
X005835Y008835D01*
X006131Y008835D01*
X006203Y008847D01*
X006272Y008869D01*
X006336Y008902D01*
X006395Y008944D01*
X006446Y008996D01*
X006489Y009054D01*
X006522Y009119D01*
X006544Y009188D01*
X006555Y009255D01*
X005835Y009255D01*
X005835Y009335D01*
X005755Y009335D01*
X005755Y009255D01*
X005755Y008835D01*
X005755Y008865D02*
X005835Y008865D01*
X005835Y008983D02*
X005755Y008983D01*
X005755Y009102D02*
X005835Y009102D01*
X005835Y009220D02*
X005755Y009220D01*
X005755Y009335D02*
X005036Y009335D01*
X005047Y009403D01*
X005069Y009472D01*
X005102Y009536D01*
X005144Y009595D01*
X005196Y009646D01*
X005254Y009689D01*
X005319Y009722D01*
X005388Y009744D01*
X005459Y009755D01*
X005755Y009755D01*
X005755Y009335D01*
X005755Y009339D02*
X005835Y009339D01*
X005835Y009335D02*
X005835Y009755D01*
X006131Y009755D01*
X006203Y009744D01*
X006272Y009722D01*
X006336Y009689D01*
X006395Y009646D01*
X006446Y009595D01*
X006489Y009536D01*
X006522Y009472D01*
X006544Y009403D01*
X006555Y009335D01*
X005835Y009335D01*
X005835Y009457D02*
X005755Y009457D01*
X005755Y009576D02*
X005835Y009576D01*
X005835Y009694D02*
X005755Y009694D01*
X005301Y009813D02*
X004575Y009813D01*
X004575Y009931D02*
X005124Y009931D01*
X005034Y010050D02*
X004575Y010050D01*
X004575Y010168D02*
X004985Y010168D01*
X004975Y010287D02*
X004575Y010287D01*
X004575Y010405D02*
X004978Y010405D01*
X005027Y010524D02*
X004575Y010524D01*
X004575Y010642D02*
X005107Y010642D01*
X005260Y010761D02*
X004575Y010761D01*
X004575Y010879D02*
X005176Y010879D01*
X005057Y010998D02*
X004575Y010998D01*
X004631Y011116D02*
X005007Y011116D01*
X004975Y011235D02*
X004674Y011235D01*
X004674Y011353D02*
X004975Y011353D01*
X005006Y011472D02*
X004632Y011472D01*
X004535Y011590D02*
X005055Y011590D01*
X005173Y011709D02*
X003795Y011709D01*
X003795Y011590D02*
X004055Y011590D01*
X003959Y011472D02*
X003795Y011472D01*
X003795Y011353D02*
X003917Y011353D01*
X003917Y011235D02*
X003795Y011235D01*
X003795Y011116D02*
X003960Y011116D01*
X004015Y010998D02*
X003795Y010998D01*
X003795Y010879D02*
X004015Y010879D01*
X004015Y010761D02*
X003795Y010761D01*
X003795Y010642D02*
X004015Y010642D01*
X004015Y010524D02*
X003795Y010524D01*
X003795Y010405D02*
X004015Y010405D01*
X004015Y010287D02*
X003795Y010287D01*
X003795Y010168D02*
X004015Y010168D01*
X004015Y010050D02*
X003795Y010050D01*
X003795Y009931D02*
X004015Y009931D01*
X004015Y009813D02*
X003795Y009813D01*
X003795Y009694D02*
X004015Y009694D01*
X004015Y009576D02*
X003795Y009576D01*
X003795Y009457D02*
X004015Y009457D01*
X004015Y009339D02*
X003795Y009339D01*
X003795Y009220D02*
X004015Y009220D01*
X004015Y009102D02*
X003795Y009102D01*
X003795Y008983D02*
X004015Y008983D01*
X004015Y008865D02*
X003795Y008865D01*
X003795Y008746D02*
X004015Y008746D01*
X004015Y008628D02*
X003795Y008628D01*
X003795Y008509D02*
X004015Y008509D01*
X004015Y008391D02*
X003795Y008391D01*
X003795Y008272D02*
X004015Y008272D01*
X004015Y008154D02*
X003795Y008154D01*
X003795Y008035D02*
X004015Y008035D01*
X004015Y007917D02*
X003795Y007917D01*
X003795Y007798D02*
X004015Y007798D01*
X004015Y007680D02*
X003795Y007680D01*
X003795Y007561D02*
X004015Y007561D01*
X004015Y007443D02*
X003795Y007443D01*
X003795Y007324D02*
X004070Y007324D01*
X004189Y007206D02*
X003795Y007206D01*
X003795Y007087D02*
X004307Y007087D01*
X004426Y006969D02*
X003795Y006969D01*
X003795Y006850D02*
X004544Y006850D01*
X004663Y006732D02*
X003795Y006732D01*
X003795Y006613D02*
X004781Y006613D01*
X004900Y006495D02*
X003795Y006495D01*
X003795Y006139D02*
X011603Y006139D01*
X011721Y006021D02*
X003795Y006021D01*
X003795Y005902D02*
X011840Y005902D01*
X011958Y005784D02*
X003795Y005784D01*
X003795Y005665D02*
X012077Y005665D01*
X012195Y005547D02*
X003795Y005547D01*
X003795Y005428D02*
X012314Y005428D01*
X012432Y005310D02*
X006516Y005310D01*
X006732Y005191D02*
X007144Y005191D01*
X007017Y005073D02*
X006838Y005073D01*
X006887Y004954D02*
X006954Y004954D01*
X006928Y004836D02*
X006908Y004836D01*
X006908Y004717D02*
X006928Y004717D01*
X006928Y004599D02*
X006908Y004599D01*
X006908Y004480D02*
X007348Y004480D01*
X007428Y004480D02*
X012598Y004480D01*
X012678Y004480D02*
X013118Y004480D01*
X013098Y004460D02*
X012678Y004460D01*
X012678Y004540D01*
X013098Y004540D01*
X013098Y004644D01*
X013118Y004624D01*
X013118Y004097D01*
X013197Y003905D01*
X013307Y003795D01*
X012857Y003795D01*
X012879Y003807D01*
X012937Y003849D01*
X012989Y003900D01*
X013031Y003959D01*
X013064Y004023D01*
X013086Y004092D01*
X013098Y004164D01*
X013098Y004460D01*
X013098Y004362D02*
X013118Y004362D01*
X013118Y004243D02*
X013098Y004243D01*
X013092Y004125D02*
X013118Y004125D01*
X013155Y004006D02*
X013055Y004006D01*
X012976Y003888D02*
X013215Y003888D01*
X013118Y004599D02*
X013098Y004599D01*
X013638Y004500D02*
X011643Y006495D01*
X005295Y006495D01*
X004295Y007495D01*
X004295Y011295D01*
X005060Y012183D02*
X007495Y012183D01*
X007495Y012301D02*
X005199Y012301D01*
X005273Y012420D02*
X007495Y012420D01*
X007495Y012538D02*
X005320Y012538D01*
X005320Y012657D02*
X007495Y012657D01*
X007495Y012775D02*
X005306Y012775D01*
X005257Y012894D02*
X007495Y012894D01*
X007495Y013012D02*
X005161Y013012D01*
X004969Y013131D02*
X007495Y013131D01*
X007495Y013249D02*
X005048Y013249D01*
X005172Y013368D02*
X007495Y013368D01*
X007495Y013486D02*
X005234Y013486D01*
X004540Y013723D02*
X004460Y013723D01*
X004460Y013842D02*
X004540Y013842D01*
X004540Y013960D02*
X004460Y013960D01*
X004460Y014079D02*
X004540Y014079D01*
X004069Y014079D02*
X003795Y014079D01*
X003795Y013960D02*
X003872Y013960D01*
X006974Y010050D02*
X007928Y010050D01*
X007785Y009931D02*
X006467Y009931D01*
X006289Y009813D02*
X007667Y009813D01*
X007548Y009694D02*
X006325Y009694D01*
X006460Y009576D02*
X007430Y009576D01*
X007311Y009457D02*
X006526Y009457D01*
X006554Y009339D02*
X007193Y009339D01*
X007074Y009220D02*
X006549Y009220D01*
X006513Y009102D02*
X006956Y009102D01*
X006837Y008983D02*
X006434Y008983D01*
X006259Y008865D02*
X006719Y008865D01*
X006600Y008746D02*
X006365Y008746D01*
X007313Y007917D02*
X008275Y007917D01*
X008275Y008035D02*
X007431Y008035D01*
X007550Y008154D02*
X008275Y008154D01*
X008275Y008272D02*
X007668Y008272D01*
X007787Y008391D02*
X008275Y008391D01*
X008275Y008509D02*
X007905Y008509D01*
X008024Y008628D02*
X008275Y008628D01*
X008295Y008746D02*
X008142Y008746D01*
X008261Y008865D02*
X008344Y008865D01*
X008379Y008983D02*
X008448Y008983D01*
X009143Y008983D02*
X009448Y008983D01*
X009498Y009102D02*
X009659Y009102D01*
X009344Y008865D02*
X009246Y008865D01*
X008314Y007798D02*
X007194Y007798D01*
X007076Y007680D02*
X008375Y007680D01*
X006260Y005310D02*
X004685Y005310D01*
X004963Y005191D02*
X006044Y005191D01*
X005938Y005073D02*
X005082Y005073D01*
X005198Y004954D02*
X005889Y004954D01*
X005868Y004836D02*
X005247Y004836D01*
X005297Y004717D02*
X005868Y004717D01*
X005868Y004599D02*
X005326Y004599D01*
X005326Y004480D02*
X005868Y004480D01*
X005868Y004362D02*
X005326Y004362D01*
X005300Y004243D02*
X005868Y004243D01*
X005868Y004125D02*
X005251Y004125D01*
X005202Y004006D02*
X005905Y004006D01*
X005965Y003888D02*
X005090Y003888D01*
X003871Y005073D02*
X003795Y005073D01*
X003795Y005191D02*
X003989Y005191D01*
X003795Y005310D02*
X004267Y005310D01*
X005411Y006775D02*
X005411Y006775D01*
X004975Y007324D02*
X004862Y007324D01*
X004744Y007443D02*
X004994Y007443D01*
X005043Y007561D02*
X004625Y007561D01*
X004575Y007680D02*
X005144Y007680D01*
X005336Y007798D02*
X004575Y007798D01*
X004575Y007917D02*
X005138Y007917D01*
X005040Y008035D02*
X004575Y008035D01*
X004575Y008154D02*
X004991Y008154D01*
X004975Y008272D02*
X004575Y008272D01*
X004575Y008391D02*
X004975Y008391D01*
X005021Y008509D02*
X004575Y008509D01*
X004575Y008628D02*
X005092Y008628D01*
X005225Y008746D02*
X004575Y008746D01*
X004575Y008865D02*
X005332Y008865D01*
X005157Y008983D02*
X004575Y008983D01*
X004575Y009102D02*
X005078Y009102D01*
X005041Y009220D02*
X004575Y009220D01*
X004575Y009339D02*
X005036Y009339D01*
X005064Y009457D02*
X004575Y009457D01*
X004575Y009576D02*
X005130Y009576D01*
X005265Y009694D02*
X004575Y009694D01*
X008095Y011472D02*
X011067Y011472D01*
X011048Y011590D02*
X008095Y011590D01*
X008095Y011709D02*
X011048Y011709D01*
X011048Y011827D02*
X008095Y011827D01*
X008095Y011946D02*
X011048Y011946D01*
X011048Y012064D02*
X008095Y012064D01*
X008095Y012183D02*
X011048Y012183D01*
X011048Y012301D02*
X008095Y012301D01*
X008095Y012420D02*
X011048Y012420D01*
X011048Y012538D02*
X008095Y012538D01*
X008095Y012657D02*
X011048Y012657D01*
X011106Y012775D02*
X008095Y012775D01*
X008095Y012894D02*
X011108Y012894D01*
X011108Y013012D02*
X008095Y013012D01*
X008095Y013131D02*
X011108Y013131D01*
X011108Y013249D02*
X008095Y013249D01*
X008095Y013368D02*
X011061Y013368D01*
X011048Y013486D02*
X008095Y013486D01*
X008095Y013605D02*
X011048Y013605D01*
X011048Y013723D02*
X008095Y013723D01*
X008095Y013842D02*
X011048Y013842D01*
X011048Y013960D02*
X008095Y013960D01*
X008095Y014079D02*
X011048Y014079D01*
X011048Y014197D02*
X008095Y014197D01*
X008095Y014316D02*
X011048Y014316D01*
X011048Y014434D02*
X008095Y014434D01*
X008095Y014553D02*
X011048Y014553D01*
X011053Y014671D02*
X008095Y014671D01*
X008095Y014790D02*
X011139Y014790D01*
X011048Y014908D02*
X008095Y014908D01*
X008095Y015027D02*
X011048Y015027D01*
X011048Y015145D02*
X008095Y015145D01*
X008095Y015264D02*
X011048Y015264D01*
X011048Y015382D02*
X008095Y015382D01*
X008095Y015501D02*
X011052Y015501D01*
X011108Y015619D02*
X008095Y015619D01*
X008095Y016449D02*
X019275Y016449D01*
X019332Y016567D02*
X008095Y016567D01*
X011426Y016212D02*
X011503Y016212D01*
X011503Y016093D02*
X011426Y016093D01*
X011426Y015975D02*
X011503Y015975D01*
X011465Y015189D02*
X011463Y015091D01*
X011463Y014811D01*
X011465Y014358D02*
X011465Y014319D01*
X012145Y013842D02*
X014556Y013842D01*
X014553Y013723D02*
X012266Y013723D01*
X012315Y013605D02*
X014948Y013605D01*
X014553Y013486D02*
X012315Y013486D01*
X012277Y013368D02*
X014553Y013368D01*
X014559Y013249D02*
X012182Y013249D01*
X011821Y013131D02*
X014752Y013131D01*
X014749Y013012D02*
X011821Y013012D01*
X011821Y012894D02*
X015068Y012894D01*
X015068Y012920D02*
X015068Y013135D01*
X015145Y013135D01*
X015145Y012920D01*
X015068Y012920D01*
X015068Y013012D02*
X015145Y013012D01*
X015145Y013131D02*
X015068Y013131D01*
X014465Y012775D02*
X012106Y012775D01*
X012256Y012657D02*
X014315Y012657D01*
X014263Y012538D02*
X012308Y012538D01*
X012315Y012420D02*
X014255Y012420D01*
X014287Y012301D02*
X012284Y012301D01*
X012198Y012183D02*
X014373Y012183D01*
X014598Y011353D02*
X022395Y011353D01*
X022395Y011235D02*
X014598Y011235D01*
X014598Y011116D02*
X022395Y011116D01*
X022395Y010998D02*
X014598Y010998D01*
X014598Y010879D02*
X022395Y010879D01*
X022395Y010761D02*
X014576Y010761D01*
X015770Y012301D02*
X021162Y012301D01*
X021070Y012420D02*
X015770Y012420D01*
X015770Y012538D02*
X021026Y012538D01*
X021736Y012775D02*
X021816Y012775D01*
X021816Y012894D02*
X021736Y012894D01*
X021736Y013012D02*
X021816Y013012D01*
X022210Y013131D02*
X022395Y013131D01*
X022395Y013012D02*
X022343Y013012D01*
X022390Y012301D02*
X022395Y012301D01*
X022395Y012183D02*
X022143Y012183D01*
X021776Y013638D02*
X021476Y013615D01*
X020795Y014295D01*
X016795Y014295D01*
X016975Y013960D02*
X020734Y013960D01*
X021106Y009220D02*
X021485Y009220D01*
X021366Y009102D02*
X021224Y009102D01*
X022054Y008272D02*
X022395Y008272D01*
X022395Y008154D02*
X022172Y008154D01*
X022291Y008035D02*
X022395Y008035D01*
X022395Y007917D02*
X022315Y007917D01*
X022315Y007798D02*
X022395Y007798D01*
X022395Y007680D02*
X022315Y007680D01*
X022297Y007561D02*
X022395Y007561D01*
X022395Y007443D02*
X022178Y007443D01*
X022060Y007324D02*
X022395Y007324D01*
X022395Y007206D02*
X022035Y007206D01*
X021986Y007255D02*
X021835Y007255D01*
X021835Y006835D01*
X021755Y006835D01*
X021755Y006755D01*
X021335Y006755D01*
X021335Y006605D01*
X021605Y006335D01*
X021755Y006335D01*
X021755Y006755D01*
X021835Y006755D01*
X021835Y006335D01*
X021986Y006335D01*
X022255Y006605D01*
X022255Y006755D01*
X021835Y006755D01*
X021835Y006835D01*
X022255Y006835D01*
X022255Y006986D01*
X021986Y007255D01*
X021835Y007206D02*
X021755Y007206D01*
X021755Y007255D02*
X021605Y007255D01*
X021335Y006986D01*
X021335Y006835D01*
X021755Y006835D01*
X021755Y007255D01*
X021755Y007087D02*
X021835Y007087D01*
X021835Y006969D02*
X021755Y006969D01*
X021755Y006850D02*
X021835Y006850D01*
X021835Y006732D02*
X021755Y006732D01*
X021755Y006613D02*
X021835Y006613D01*
X021835Y006495D02*
X021755Y006495D01*
X021755Y006376D02*
X021835Y006376D01*
X022027Y006376D02*
X022395Y006376D01*
X022395Y006258D02*
X012276Y006258D01*
X012157Y006376D02*
X020479Y006376D01*
X020360Y006495D02*
X012039Y006495D01*
X011920Y006613D02*
X020275Y006613D01*
X021112Y006376D02*
X021564Y006376D01*
X021445Y006495D02*
X021230Y006495D01*
X021315Y006613D02*
X021335Y006613D01*
X021335Y006732D02*
X021315Y006732D01*
X021315Y006850D02*
X021335Y006850D01*
X021335Y006969D02*
X021315Y006969D01*
X021239Y007087D02*
X021437Y007087D01*
X021555Y007206D02*
X021120Y007206D01*
X021060Y007324D02*
X021531Y007324D01*
X021412Y007443D02*
X021178Y007443D01*
X022154Y007087D02*
X022395Y007087D01*
X022395Y006969D02*
X022255Y006969D01*
X022255Y006850D02*
X022395Y006850D01*
X022395Y006732D02*
X022255Y006732D01*
X022255Y006613D02*
X022395Y006613D01*
X022395Y006495D02*
X022145Y006495D01*
X022395Y006139D02*
X012394Y006139D01*
X012513Y006021D02*
X022395Y006021D01*
X022395Y005902D02*
X012631Y005902D01*
X012750Y005784D02*
X022395Y005784D01*
X022395Y005665D02*
X012868Y005665D01*
X012987Y005547D02*
X022395Y005547D01*
X022395Y005428D02*
X013105Y005428D01*
X013224Y005310D02*
X013510Y005310D01*
X013766Y005310D02*
X021590Y005310D01*
X021312Y005191D02*
X013982Y005191D01*
X014088Y005073D02*
X021194Y005073D01*
X021077Y004954D02*
X014137Y004954D01*
X014158Y004836D02*
X021028Y004836D01*
X020979Y004717D02*
X014158Y004717D01*
X014158Y004599D02*
X020949Y004599D01*
X020949Y004480D02*
X014158Y004480D01*
X014158Y004362D02*
X020949Y004362D01*
X020976Y004243D02*
X014158Y004243D01*
X014158Y004125D02*
X021025Y004125D01*
X021074Y004006D02*
X014120Y004006D01*
X014061Y003888D02*
X021186Y003888D01*
X022286Y005191D02*
X022395Y005191D01*
X022395Y005310D02*
X022008Y005310D01*
X022126Y008391D02*
X022395Y008391D01*
X022395Y008509D02*
X022245Y008509D01*
X022315Y008628D02*
X022395Y008628D01*
X022395Y008746D02*
X022315Y008746D01*
X022315Y008865D02*
X022395Y008865D01*
X022395Y008983D02*
X022315Y008983D01*
X022395Y009102D02*
X022224Y009102D01*
X022106Y009220D02*
X022395Y009220D01*
X012394Y005191D02*
X007632Y005191D01*
X007758Y005073D02*
X012267Y005073D01*
X012204Y004954D02*
X007821Y004954D01*
X007848Y004836D02*
X012178Y004836D01*
X012178Y004717D02*
X007848Y004717D01*
X007848Y004599D02*
X012178Y004599D01*
X012178Y004362D02*
X007848Y004362D01*
X007848Y004243D02*
X012178Y004243D01*
X012184Y004125D02*
X007842Y004125D01*
X007805Y004006D02*
X012220Y004006D01*
X012299Y003888D02*
X007726Y003888D01*
X007049Y003888D02*
X006811Y003888D01*
X006870Y004006D02*
X006970Y004006D01*
X006934Y004125D02*
X006908Y004125D01*
X006908Y004243D02*
X006928Y004243D01*
X006928Y004362D02*
X006908Y004362D01*
X007348Y004599D02*
X007428Y004599D01*
X007428Y004717D02*
X007348Y004717D01*
X007348Y004836D02*
X007428Y004836D01*
X007428Y004954D02*
X007348Y004954D01*
X007348Y005073D02*
X007428Y005073D01*
X007428Y005191D02*
X007348Y005191D01*
X010245Y010995D02*
X010545Y010995D01*
X011426Y012894D02*
X011503Y012894D01*
X011503Y013012D02*
X011426Y013012D01*
X018111Y020715D02*
X022395Y020715D01*
X022395Y020833D02*
X018229Y020833D01*
X018348Y020952D02*
X021624Y020952D01*
X021338Y021070D02*
X019974Y021070D01*
X019835Y021070D02*
X019755Y021070D01*
X019755Y021036D02*
X019755Y021755D01*
X019335Y021755D01*
X019335Y021459D01*
X019347Y021388D01*
X019369Y021319D01*
X019402Y021254D01*
X019444Y021196D01*
X019496Y021144D01*
X019554Y021102D01*
X019619Y021069D01*
X019688Y021047D01*
X019755Y021036D01*
X019616Y021070D02*
X019106Y021070D01*
X019224Y021189D02*
X019451Y021189D01*
X019375Y021307D02*
X019280Y021307D01*
X019315Y021426D02*
X019341Y021426D01*
X019335Y021544D02*
X019315Y021544D01*
X019315Y021663D02*
X019335Y021663D01*
X019315Y021781D02*
X019755Y021781D01*
X019835Y021781D02*
X020949Y021781D01*
X020949Y021663D02*
X020255Y021663D01*
X020255Y021544D02*
X020985Y021544D01*
X021034Y021426D02*
X020250Y021426D01*
X020216Y021307D02*
X021089Y021307D01*
X021208Y021189D02*
X020139Y021189D01*
X019835Y021189D02*
X019755Y021189D01*
X019755Y021307D02*
X019835Y021307D01*
X019835Y021426D02*
X019755Y021426D01*
X019755Y021544D02*
X019835Y021544D01*
X019835Y021663D02*
X019755Y021663D01*
X019335Y021900D02*
X019315Y021900D01*
X019315Y022018D02*
X019335Y022018D01*
X019336Y022137D02*
X019315Y022137D01*
X019292Y022255D02*
X019364Y022255D01*
X019429Y022374D02*
X019243Y022374D01*
X020161Y022374D02*
X021172Y022374D01*
X021068Y022255D02*
X020227Y022255D01*
X020254Y022137D02*
X021019Y022137D01*
X020970Y022018D02*
X020255Y022018D01*
X020255Y021900D02*
X020949Y021900D01*
X021974Y020952D02*
X022395Y020952D01*
X022395Y021070D02*
X022260Y021070D01*
X022391Y021189D02*
X022395Y021189D01*
X018485Y021070D02*
X018466Y021070D01*
D19*
X013395Y019345D03*
X016795Y014295D03*
X010545Y010995D03*
X010145Y010295D03*
X004295Y011295D03*
D20*
X005795Y010295D02*
X006795Y010295D01*
X007795Y011295D01*
X007795Y017295D01*
X009295Y018795D02*
X017295Y018795D01*
X018795Y020295D01*
X020295Y020295D01*
X020795Y019795D01*
X020795Y019295D01*
D21*
X014220Y011071D02*
X014161Y011071D01*
X013531Y011071D02*
X013492Y011071D01*
M02*
