G75*
G70*
%OFA0B0*%
%FSLAX24Y24*%
%IPPOS*%
%LPD*%
%AMOC8*
5,1,8,0,0,1.08239X$1,22.5*
%
%ADD10C,0.0000*%
%ADD11C,0.0030*%
%ADD12C,0.0050*%
%ADD13C,0.0100*%
%ADD14C,0.0080*%
D10*
X003295Y003295D02*
X022980Y003295D01*
X022980Y022980D01*
X003295Y022980D01*
X003295Y003295D01*
X003846Y004476D02*
X003848Y004526D01*
X003854Y004576D01*
X003864Y004625D01*
X003878Y004673D01*
X003895Y004720D01*
X003916Y004765D01*
X003941Y004809D01*
X003969Y004850D01*
X004001Y004889D01*
X004035Y004926D01*
X004072Y004960D01*
X004112Y004990D01*
X004154Y005017D01*
X004198Y005041D01*
X004244Y005062D01*
X004291Y005078D01*
X004339Y005091D01*
X004389Y005100D01*
X004438Y005105D01*
X004489Y005106D01*
X004539Y005103D01*
X004588Y005096D01*
X004637Y005085D01*
X004685Y005070D01*
X004731Y005052D01*
X004776Y005030D01*
X004819Y005004D01*
X004860Y004975D01*
X004899Y004943D01*
X004935Y004908D01*
X004967Y004870D01*
X004997Y004830D01*
X005024Y004787D01*
X005047Y004743D01*
X005066Y004697D01*
X005082Y004649D01*
X005094Y004600D01*
X005102Y004551D01*
X005106Y004501D01*
X005106Y004451D01*
X005102Y004401D01*
X005094Y004352D01*
X005082Y004303D01*
X005066Y004255D01*
X005047Y004209D01*
X005024Y004165D01*
X004997Y004122D01*
X004967Y004082D01*
X004935Y004044D01*
X004899Y004009D01*
X004860Y003977D01*
X004819Y003948D01*
X004776Y003922D01*
X004731Y003900D01*
X004685Y003882D01*
X004637Y003867D01*
X004588Y003856D01*
X004539Y003849D01*
X004489Y003846D01*
X004438Y003847D01*
X004389Y003852D01*
X004339Y003861D01*
X004291Y003874D01*
X004244Y003890D01*
X004198Y003911D01*
X004154Y003935D01*
X004112Y003962D01*
X004072Y003992D01*
X004035Y004026D01*
X004001Y004063D01*
X003969Y004102D01*
X003941Y004143D01*
X003916Y004187D01*
X003895Y004232D01*
X003878Y004279D01*
X003864Y004327D01*
X003854Y004376D01*
X003848Y004426D01*
X003846Y004476D01*
X003846Y021799D02*
X003848Y021849D01*
X003854Y021899D01*
X003864Y021948D01*
X003878Y021996D01*
X003895Y022043D01*
X003916Y022088D01*
X003941Y022132D01*
X003969Y022173D01*
X004001Y022212D01*
X004035Y022249D01*
X004072Y022283D01*
X004112Y022313D01*
X004154Y022340D01*
X004198Y022364D01*
X004244Y022385D01*
X004291Y022401D01*
X004339Y022414D01*
X004389Y022423D01*
X004438Y022428D01*
X004489Y022429D01*
X004539Y022426D01*
X004588Y022419D01*
X004637Y022408D01*
X004685Y022393D01*
X004731Y022375D01*
X004776Y022353D01*
X004819Y022327D01*
X004860Y022298D01*
X004899Y022266D01*
X004935Y022231D01*
X004967Y022193D01*
X004997Y022153D01*
X005024Y022110D01*
X005047Y022066D01*
X005066Y022020D01*
X005082Y021972D01*
X005094Y021923D01*
X005102Y021874D01*
X005106Y021824D01*
X005106Y021774D01*
X005102Y021724D01*
X005094Y021675D01*
X005082Y021626D01*
X005066Y021578D01*
X005047Y021532D01*
X005024Y021488D01*
X004997Y021445D01*
X004967Y021405D01*
X004935Y021367D01*
X004899Y021332D01*
X004860Y021300D01*
X004819Y021271D01*
X004776Y021245D01*
X004731Y021223D01*
X004685Y021205D01*
X004637Y021190D01*
X004588Y021179D01*
X004539Y021172D01*
X004489Y021169D01*
X004438Y021170D01*
X004389Y021175D01*
X004339Y021184D01*
X004291Y021197D01*
X004244Y021213D01*
X004198Y021234D01*
X004154Y021258D01*
X004112Y021285D01*
X004072Y021315D01*
X004035Y021349D01*
X004001Y021386D01*
X003969Y021425D01*
X003941Y021466D01*
X003916Y021510D01*
X003895Y021555D01*
X003878Y021602D01*
X003864Y021650D01*
X003854Y021699D01*
X003848Y021749D01*
X003846Y021799D01*
X021169Y021799D02*
X021171Y021849D01*
X021177Y021899D01*
X021187Y021948D01*
X021201Y021996D01*
X021218Y022043D01*
X021239Y022088D01*
X021264Y022132D01*
X021292Y022173D01*
X021324Y022212D01*
X021358Y022249D01*
X021395Y022283D01*
X021435Y022313D01*
X021477Y022340D01*
X021521Y022364D01*
X021567Y022385D01*
X021614Y022401D01*
X021662Y022414D01*
X021712Y022423D01*
X021761Y022428D01*
X021812Y022429D01*
X021862Y022426D01*
X021911Y022419D01*
X021960Y022408D01*
X022008Y022393D01*
X022054Y022375D01*
X022099Y022353D01*
X022142Y022327D01*
X022183Y022298D01*
X022222Y022266D01*
X022258Y022231D01*
X022290Y022193D01*
X022320Y022153D01*
X022347Y022110D01*
X022370Y022066D01*
X022389Y022020D01*
X022405Y021972D01*
X022417Y021923D01*
X022425Y021874D01*
X022429Y021824D01*
X022429Y021774D01*
X022425Y021724D01*
X022417Y021675D01*
X022405Y021626D01*
X022389Y021578D01*
X022370Y021532D01*
X022347Y021488D01*
X022320Y021445D01*
X022290Y021405D01*
X022258Y021367D01*
X022222Y021332D01*
X022183Y021300D01*
X022142Y021271D01*
X022099Y021245D01*
X022054Y021223D01*
X022008Y021205D01*
X021960Y021190D01*
X021911Y021179D01*
X021862Y021172D01*
X021812Y021169D01*
X021761Y021170D01*
X021712Y021175D01*
X021662Y021184D01*
X021614Y021197D01*
X021567Y021213D01*
X021521Y021234D01*
X021477Y021258D01*
X021435Y021285D01*
X021395Y021315D01*
X021358Y021349D01*
X021324Y021386D01*
X021292Y021425D01*
X021264Y021466D01*
X021239Y021510D01*
X021218Y021555D01*
X021201Y021602D01*
X021187Y021650D01*
X021177Y021699D01*
X021171Y021749D01*
X021169Y021799D01*
X021169Y004476D02*
X021171Y004526D01*
X021177Y004576D01*
X021187Y004625D01*
X021201Y004673D01*
X021218Y004720D01*
X021239Y004765D01*
X021264Y004809D01*
X021292Y004850D01*
X021324Y004889D01*
X021358Y004926D01*
X021395Y004960D01*
X021435Y004990D01*
X021477Y005017D01*
X021521Y005041D01*
X021567Y005062D01*
X021614Y005078D01*
X021662Y005091D01*
X021712Y005100D01*
X021761Y005105D01*
X021812Y005106D01*
X021862Y005103D01*
X021911Y005096D01*
X021960Y005085D01*
X022008Y005070D01*
X022054Y005052D01*
X022099Y005030D01*
X022142Y005004D01*
X022183Y004975D01*
X022222Y004943D01*
X022258Y004908D01*
X022290Y004870D01*
X022320Y004830D01*
X022347Y004787D01*
X022370Y004743D01*
X022389Y004697D01*
X022405Y004649D01*
X022417Y004600D01*
X022425Y004551D01*
X022429Y004501D01*
X022429Y004451D01*
X022425Y004401D01*
X022417Y004352D01*
X022405Y004303D01*
X022389Y004255D01*
X022370Y004209D01*
X022347Y004165D01*
X022320Y004122D01*
X022290Y004082D01*
X022258Y004044D01*
X022222Y004009D01*
X022183Y003977D01*
X022142Y003948D01*
X022099Y003922D01*
X022054Y003900D01*
X022008Y003882D01*
X021960Y003867D01*
X021911Y003856D01*
X021862Y003849D01*
X021812Y003846D01*
X021761Y003847D01*
X021712Y003852D01*
X021662Y003861D01*
X021614Y003874D01*
X021567Y003890D01*
X021521Y003911D01*
X021477Y003935D01*
X021435Y003962D01*
X021395Y003992D01*
X021358Y004026D01*
X021324Y004063D01*
X021292Y004102D01*
X021264Y004143D01*
X021239Y004187D01*
X021218Y004232D01*
X021201Y004279D01*
X021187Y004327D01*
X021177Y004376D01*
X021171Y004426D01*
X021169Y004476D01*
D11*
X020948Y005910D02*
X020755Y006201D01*
X020654Y006201D02*
X020460Y006201D01*
X020557Y006201D02*
X020557Y005910D01*
X020755Y005910D02*
X020948Y006201D01*
X021410Y006152D02*
X021410Y005959D01*
X021459Y005910D01*
X021555Y005910D01*
X021604Y005959D01*
X021604Y006055D01*
X021507Y006055D01*
X021410Y006152D02*
X021459Y006201D01*
X021555Y006201D01*
X021604Y006152D01*
X021705Y006201D02*
X021898Y005910D01*
X021898Y006201D01*
X022000Y006201D02*
X022145Y006201D01*
X022193Y006152D01*
X022193Y005959D01*
X022145Y005910D01*
X022000Y005910D01*
X022000Y006201D01*
X021705Y006201D02*
X021705Y005910D01*
X019948Y007610D02*
X019755Y007901D01*
X019654Y007852D02*
X019654Y007755D01*
X019605Y007707D01*
X019460Y007707D01*
X019460Y007610D02*
X019460Y007901D01*
X019605Y007901D01*
X019654Y007852D01*
X019557Y007707D02*
X019654Y007610D01*
X019755Y007610D02*
X019948Y007901D01*
X020360Y009460D02*
X020360Y009751D01*
X020505Y009751D01*
X020554Y009702D01*
X020554Y009605D01*
X020505Y009557D01*
X020360Y009557D01*
X020457Y009557D02*
X020554Y009460D01*
X020752Y009460D02*
X020752Y009751D01*
X020848Y009751D02*
X020655Y009751D01*
X020950Y009702D02*
X020950Y009654D01*
X020998Y009605D01*
X021095Y009605D01*
X021143Y009557D01*
X021143Y009509D01*
X021095Y009460D01*
X020998Y009460D01*
X020950Y009509D01*
X020950Y009702D02*
X020998Y009751D01*
X021095Y009751D01*
X021143Y009702D01*
X021410Y009702D02*
X021459Y009751D01*
X021555Y009751D01*
X021604Y009702D01*
X021555Y009605D02*
X021604Y009557D01*
X021604Y009509D01*
X021555Y009460D01*
X021459Y009460D01*
X021410Y009509D01*
X021459Y009605D02*
X021555Y009605D01*
X021459Y009605D02*
X021410Y009654D01*
X021410Y009702D01*
X021705Y009751D02*
X021850Y009751D01*
X021898Y009702D01*
X021898Y009509D01*
X021850Y009460D01*
X021705Y009460D01*
X021705Y009751D01*
X022000Y009654D02*
X022096Y009751D01*
X022193Y009654D01*
X022193Y009460D01*
X022193Y009605D02*
X022000Y009605D01*
X022000Y009654D02*
X022000Y009460D01*
X022000Y011810D02*
X022145Y011810D01*
X022193Y011859D01*
X022193Y012052D01*
X022145Y012101D01*
X022000Y012101D01*
X022000Y011810D01*
X021898Y011810D02*
X021898Y012101D01*
X021705Y012101D02*
X021898Y011810D01*
X021705Y011810D02*
X021705Y012101D01*
X021604Y012052D02*
X021555Y012101D01*
X021459Y012101D01*
X021410Y012052D01*
X021410Y011859D01*
X021459Y011810D01*
X021555Y011810D01*
X021604Y011859D01*
X021604Y011955D01*
X021507Y011955D01*
X020900Y012960D02*
X020803Y012960D01*
X020755Y013009D01*
X020654Y012960D02*
X020654Y013251D01*
X020557Y013154D01*
X020460Y013251D01*
X020460Y012960D01*
X020755Y013202D02*
X020803Y013251D01*
X020900Y013251D01*
X020948Y013202D01*
X020948Y013154D01*
X020900Y013105D01*
X020948Y013057D01*
X020948Y013009D01*
X020900Y012960D01*
X020900Y013105D02*
X020852Y013105D01*
X021459Y014260D02*
X021410Y014309D01*
X021459Y014260D02*
X021555Y014260D01*
X021604Y014309D01*
X021604Y014357D01*
X021555Y014405D01*
X021459Y014405D01*
X021410Y014454D01*
X021410Y014502D01*
X021459Y014551D01*
X021555Y014551D01*
X021604Y014502D01*
X021705Y014551D02*
X021802Y014551D01*
X021753Y014551D02*
X021753Y014260D01*
X021705Y014260D02*
X021802Y014260D01*
X021901Y014309D02*
X021901Y014502D01*
X021950Y014551D01*
X022046Y014551D01*
X022095Y014502D01*
X022095Y014405D02*
X021998Y014405D01*
X022095Y014405D02*
X022095Y014309D01*
X022046Y014260D01*
X021950Y014260D01*
X021901Y014309D01*
X021898Y015360D02*
X021898Y015651D01*
X022000Y015651D02*
X022145Y015651D01*
X022193Y015602D01*
X022193Y015409D01*
X022145Y015360D01*
X022000Y015360D01*
X022000Y015651D01*
X021705Y015651D02*
X021705Y015360D01*
X021604Y015409D02*
X021604Y015505D01*
X021507Y015505D01*
X021410Y015409D02*
X021410Y015602D01*
X021459Y015651D01*
X021555Y015651D01*
X021604Y015602D01*
X021705Y015651D02*
X021898Y015360D01*
X021604Y015409D02*
X021555Y015360D01*
X021459Y015360D01*
X021410Y015409D01*
X021193Y015409D02*
X021193Y015602D01*
X021145Y015651D01*
X021000Y015651D01*
X021000Y015360D01*
X021145Y015360D01*
X021193Y015409D01*
X020898Y015409D02*
X020898Y015602D01*
X020850Y015651D01*
X020705Y015651D01*
X020705Y015360D01*
X020850Y015360D01*
X020898Y015409D01*
X020604Y015457D02*
X020604Y015651D01*
X020410Y015651D02*
X020410Y015457D01*
X020507Y015360D01*
X020604Y015457D01*
X020145Y015409D02*
X020145Y015505D01*
X020048Y015505D01*
X019951Y015409D02*
X020000Y015360D01*
X020096Y015360D01*
X020145Y015409D01*
X020145Y015602D02*
X020096Y015651D01*
X020000Y015651D01*
X019951Y015602D01*
X019951Y015409D01*
X019852Y015360D02*
X019755Y015360D01*
X019803Y015360D02*
X019803Y015651D01*
X019755Y015651D02*
X019852Y015651D01*
X019654Y015602D02*
X019605Y015651D01*
X019509Y015651D01*
X019460Y015602D01*
X019460Y015554D01*
X019509Y015505D01*
X019605Y015505D01*
X019654Y015457D01*
X019654Y015409D01*
X019605Y015360D01*
X019509Y015360D01*
X019460Y015409D01*
X019195Y016160D02*
X019050Y016160D01*
X019050Y016451D01*
X019195Y016451D01*
X019243Y016402D01*
X019243Y016209D01*
X019195Y016160D01*
X018948Y016209D02*
X018948Y016451D01*
X018755Y016451D02*
X018755Y016209D01*
X018803Y016160D01*
X018900Y016160D01*
X018948Y016209D01*
X018654Y016160D02*
X018557Y016257D01*
X018605Y016257D02*
X018460Y016257D01*
X018460Y016160D02*
X018460Y016451D01*
X018605Y016451D01*
X018654Y016402D01*
X018654Y016305D01*
X018605Y016257D01*
X018557Y017160D02*
X018557Y017451D01*
X018460Y017451D02*
X018654Y017451D01*
X018755Y017451D02*
X018755Y017160D01*
X018755Y017305D02*
X018948Y017305D01*
X019050Y017257D02*
X019195Y017257D01*
X019243Y017305D01*
X019243Y017402D01*
X019195Y017451D01*
X019050Y017451D01*
X019050Y017160D01*
X018948Y017160D02*
X018948Y017451D01*
X019146Y017257D02*
X019243Y017160D01*
X019243Y018160D02*
X019050Y018160D01*
X019050Y018451D01*
X019243Y018451D01*
X019146Y018305D02*
X019050Y018305D01*
X018948Y018160D02*
X018755Y018160D01*
X018755Y018451D01*
X018654Y018451D02*
X018460Y018451D01*
X018460Y018160D01*
X018654Y018160D01*
X018557Y018305D02*
X018460Y018305D01*
X018510Y019160D02*
X018510Y019354D01*
X018607Y019451D01*
X018704Y019354D01*
X018704Y019160D01*
X018805Y019160D02*
X018902Y019160D01*
X018853Y019160D02*
X018853Y019451D01*
X018805Y019451D02*
X018902Y019451D01*
X019001Y019451D02*
X019001Y019160D01*
X019195Y019160D01*
X018704Y019305D02*
X018510Y019305D01*
X019459Y020760D02*
X019410Y020809D01*
X019410Y021002D01*
X019459Y021051D01*
X019555Y021051D01*
X019604Y021002D01*
X019604Y020905D02*
X019507Y020905D01*
X019604Y020905D02*
X019604Y020809D01*
X019555Y020760D01*
X019459Y020760D01*
X019705Y020760D02*
X019705Y021051D01*
X019898Y020760D01*
X019898Y021051D01*
X020000Y021051D02*
X020000Y020760D01*
X020145Y020760D01*
X020193Y020809D01*
X020193Y021002D01*
X020145Y021051D01*
X020000Y021051D01*
X018145Y021659D02*
X018145Y021755D01*
X018048Y021755D01*
X017951Y021659D02*
X018000Y021610D01*
X018096Y021610D01*
X018145Y021659D01*
X018145Y021852D02*
X018096Y021901D01*
X018000Y021901D01*
X017951Y021852D01*
X017951Y021659D01*
X017852Y021610D02*
X017755Y021610D01*
X017803Y021610D02*
X017803Y021901D01*
X017755Y021901D02*
X017852Y021901D01*
X017654Y021852D02*
X017605Y021901D01*
X017509Y021901D01*
X017460Y021852D01*
X017460Y021804D01*
X017509Y021755D01*
X017605Y021755D01*
X017654Y021707D01*
X017654Y021659D01*
X017605Y021610D01*
X017509Y021610D01*
X017460Y021659D01*
X015530Y020496D02*
X015240Y020496D01*
X015240Y020400D02*
X015240Y020593D01*
X015240Y020298D02*
X015482Y020298D01*
X015530Y020250D01*
X015530Y020153D01*
X015482Y020105D01*
X015240Y020105D01*
X015288Y020004D02*
X015337Y020004D01*
X015385Y019955D01*
X015385Y019810D01*
X015240Y019810D02*
X015240Y019955D01*
X015288Y020004D01*
X015385Y019955D02*
X015434Y020004D01*
X015482Y020004D01*
X015530Y019955D01*
X015530Y019810D01*
X015240Y019810D01*
X014382Y021410D02*
X014188Y021410D01*
X014140Y021459D01*
X014140Y021555D01*
X014188Y021604D01*
X014285Y021604D02*
X014285Y021507D01*
X014285Y021604D02*
X014382Y021604D01*
X014430Y021555D01*
X014430Y021459D01*
X014382Y021410D01*
X014430Y021705D02*
X014140Y021705D01*
X014430Y021898D01*
X014140Y021898D01*
X014140Y022000D02*
X014140Y022145D01*
X014188Y022193D01*
X014382Y022193D01*
X014430Y022145D01*
X014430Y022000D01*
X014140Y022000D01*
X013352Y020951D02*
X013352Y020660D01*
X013448Y020660D02*
X013255Y020660D01*
X013154Y020660D02*
X013154Y020951D01*
X013057Y020854D01*
X012960Y020951D01*
X012960Y020660D01*
X013255Y020854D02*
X013352Y020951D01*
X012030Y021509D02*
X011982Y021460D01*
X012030Y021509D02*
X012030Y021605D01*
X011982Y021654D01*
X011934Y021654D01*
X011885Y021605D01*
X011885Y021509D01*
X011837Y021460D01*
X011788Y021460D01*
X011740Y021509D01*
X011740Y021605D01*
X011788Y021654D01*
X011740Y021755D02*
X011740Y021852D01*
X011740Y021803D02*
X012030Y021803D01*
X012030Y021755D02*
X012030Y021852D01*
X011982Y021951D02*
X012030Y022000D01*
X012030Y022096D01*
X011982Y022145D01*
X011885Y022145D01*
X011885Y022048D01*
X011788Y021951D02*
X011982Y021951D01*
X011788Y021951D02*
X011740Y022000D01*
X011740Y022096D01*
X011788Y022145D01*
X016088Y017493D02*
X016040Y017445D01*
X016040Y017300D01*
X016330Y017300D01*
X016330Y017445D01*
X016282Y017493D01*
X016088Y017493D01*
X016040Y017198D02*
X016040Y017005D01*
X016330Y017005D01*
X016330Y017198D01*
X016185Y017102D02*
X016185Y017005D01*
X016330Y016904D02*
X016330Y016710D01*
X016040Y016710D01*
X018059Y013551D02*
X018010Y013502D01*
X018010Y013454D01*
X018059Y013405D01*
X018155Y013405D01*
X018204Y013357D01*
X018204Y013309D01*
X018155Y013260D01*
X018059Y013260D01*
X018010Y013309D01*
X018059Y013551D02*
X018155Y013551D01*
X018204Y013502D01*
X018305Y013502D02*
X018305Y013309D01*
X018353Y013260D01*
X018450Y013260D01*
X018498Y013309D01*
X018600Y013260D02*
X018793Y013260D01*
X018600Y013260D02*
X018600Y013551D01*
X018498Y013502D02*
X018450Y013551D01*
X018353Y013551D01*
X018305Y013502D01*
X013929Y007627D02*
X013687Y007627D01*
X013880Y007627D02*
X013880Y007482D01*
X013832Y007434D01*
X013687Y007434D01*
X013687Y007332D02*
X013687Y007187D01*
X013735Y007139D01*
X013832Y007139D01*
X013880Y007187D01*
X013880Y007332D01*
X013590Y007332D01*
X013638Y007038D02*
X013735Y007038D01*
X013784Y006989D01*
X013784Y006844D01*
X013880Y006844D02*
X013590Y006844D01*
X013590Y006989D01*
X013638Y007038D01*
X013784Y006941D02*
X013880Y007038D01*
X013832Y006743D02*
X013638Y006743D01*
X013590Y006695D01*
X013590Y006550D01*
X013880Y006550D01*
X013880Y006695D01*
X013832Y006743D01*
X013929Y006448D02*
X013929Y006255D01*
X013880Y006154D02*
X013590Y006154D01*
X013687Y006057D01*
X013590Y005960D01*
X013880Y005960D01*
X013300Y005551D02*
X013155Y005405D01*
X013348Y005405D01*
X013300Y005260D02*
X013300Y005551D01*
X013054Y005551D02*
X013054Y005260D01*
X012860Y005260D02*
X012860Y005551D01*
X012957Y005454D01*
X013054Y005551D01*
X012882Y006010D02*
X012930Y006059D01*
X012930Y006155D01*
X012882Y006204D01*
X012834Y006204D01*
X012785Y006155D01*
X012785Y006059D01*
X012737Y006010D01*
X012688Y006010D01*
X012640Y006059D01*
X012640Y006155D01*
X012688Y006204D01*
X012640Y006305D02*
X012640Y006450D01*
X012688Y006498D01*
X012882Y006498D01*
X012930Y006450D01*
X012930Y006305D01*
X012640Y006305D01*
X012737Y006600D02*
X012640Y006696D01*
X012737Y006793D01*
X012930Y006793D01*
X012785Y006793D02*
X012785Y006600D01*
X012737Y006600D02*
X012930Y006600D01*
X011930Y006600D02*
X011930Y006793D01*
X011930Y006600D02*
X011640Y006600D01*
X011688Y006498D02*
X011640Y006450D01*
X011640Y006353D01*
X011688Y006305D01*
X011882Y006305D01*
X011930Y006353D01*
X011930Y006450D01*
X011882Y006498D01*
X011882Y006204D02*
X011930Y006155D01*
X011930Y006059D01*
X011882Y006010D01*
X011785Y006059D02*
X011785Y006155D01*
X011834Y006204D01*
X011882Y006204D01*
X011785Y006059D02*
X011737Y006010D01*
X011688Y006010D01*
X011640Y006059D01*
X011640Y006155D01*
X011688Y006204D01*
X010980Y006155D02*
X010932Y006204D01*
X010835Y006204D01*
X010835Y006107D01*
X010738Y006010D02*
X010932Y006010D01*
X010980Y006059D01*
X010980Y006155D01*
X010980Y006305D02*
X010690Y006305D01*
X010980Y006498D01*
X010690Y006498D01*
X010690Y006600D02*
X010690Y006745D01*
X010738Y006793D01*
X010932Y006793D01*
X010980Y006745D01*
X010980Y006600D01*
X010690Y006600D01*
X010738Y006204D02*
X010690Y006155D01*
X010690Y006059D01*
X010738Y006010D01*
X009930Y006107D02*
X009834Y006010D01*
X009640Y006010D01*
X009640Y006204D02*
X009834Y006204D01*
X009930Y006107D01*
X009882Y006305D02*
X009930Y006353D01*
X009930Y006498D01*
X009882Y006600D02*
X009930Y006648D01*
X009930Y006793D01*
X009882Y006894D02*
X009930Y006943D01*
X009930Y007039D01*
X009882Y007088D01*
X009834Y007088D01*
X009785Y007039D01*
X009785Y006991D01*
X009785Y007039D02*
X009737Y007088D01*
X009688Y007088D01*
X009640Y007039D01*
X009640Y006943D01*
X009688Y006894D01*
X009737Y006793D02*
X009737Y006648D01*
X009785Y006600D01*
X009882Y006600D01*
X009737Y006498D02*
X009737Y006353D01*
X009785Y006305D01*
X009882Y006305D01*
X009882Y007189D02*
X009882Y007237D01*
X009930Y007237D01*
X009930Y007189D01*
X009882Y007189D01*
X009882Y007336D02*
X009930Y007385D01*
X009930Y007481D01*
X009882Y007530D01*
X009834Y007530D01*
X009785Y007481D01*
X009785Y007433D01*
X009785Y007481D02*
X009737Y007530D01*
X009688Y007530D01*
X009640Y007481D01*
X009640Y007385D01*
X009688Y007336D01*
X008930Y007284D02*
X008640Y007284D01*
X008640Y007091D02*
X008930Y007284D01*
X008930Y007091D02*
X008640Y007091D01*
X008640Y006991D02*
X008640Y006894D01*
X008640Y006943D02*
X008930Y006943D01*
X008930Y006991D02*
X008930Y006894D01*
X008930Y006793D02*
X008930Y006648D01*
X008882Y006600D01*
X008785Y006600D01*
X008737Y006648D01*
X008737Y006793D01*
X008737Y006498D02*
X008737Y006353D01*
X008785Y006305D01*
X008882Y006305D01*
X008930Y006353D01*
X008930Y006498D01*
X008834Y006204D02*
X008640Y006204D01*
X008834Y006204D02*
X008930Y006107D01*
X008834Y006010D01*
X008640Y006010D01*
X007343Y005601D02*
X007343Y005310D01*
X007246Y005407D01*
X007150Y005310D01*
X007150Y005601D01*
X007048Y005552D02*
X007048Y005359D01*
X007000Y005310D01*
X006903Y005310D01*
X006855Y005359D01*
X006855Y005552D01*
X006903Y005601D01*
X007000Y005601D01*
X007048Y005552D01*
X006754Y005552D02*
X006754Y005455D01*
X006705Y005407D01*
X006560Y005407D01*
X006560Y005310D02*
X006560Y005601D01*
X006705Y005601D01*
X006754Y005552D01*
X004954Y007209D02*
X004905Y007160D01*
X004809Y007160D01*
X004760Y007209D01*
X004760Y007402D01*
X004809Y007451D01*
X004905Y007451D01*
X004954Y007402D01*
X004905Y008160D02*
X004954Y008209D01*
X004954Y008402D01*
X004905Y008451D01*
X004760Y008451D01*
X004760Y008160D01*
X004905Y008160D01*
X004954Y009305D02*
X004760Y009305D01*
X004857Y010209D02*
X004857Y010402D01*
X004760Y010305D02*
X004954Y010305D01*
X005004Y011160D02*
X005004Y011451D01*
X004907Y011354D01*
X004810Y011451D01*
X004810Y011160D01*
X004811Y011790D02*
X004714Y011790D01*
X004666Y011839D01*
X004666Y012032D01*
X004714Y012081D01*
X004811Y012081D01*
X004859Y012032D01*
X004859Y011935D02*
X004762Y011935D01*
X004859Y011935D02*
X004859Y011839D01*
X004811Y011790D01*
X004566Y011790D02*
X004469Y011790D01*
X004518Y011790D02*
X004518Y012081D01*
X004566Y012081D02*
X004469Y012081D01*
X004368Y012032D02*
X004320Y012081D01*
X004223Y012081D01*
X004175Y012032D01*
X004175Y011984D01*
X004223Y011935D01*
X004320Y011935D01*
X004368Y011887D01*
X004368Y011839D01*
X004320Y011790D01*
X004223Y011790D01*
X004175Y011839D01*
X005460Y013060D02*
X005460Y013351D01*
X005557Y013254D01*
X005654Y013351D01*
X005654Y013060D01*
X005755Y013060D02*
X005948Y013254D01*
X005948Y013302D01*
X005900Y013351D01*
X005803Y013351D01*
X005755Y013302D01*
X005755Y013060D02*
X005948Y013060D01*
X004845Y014210D02*
X004700Y014210D01*
X004700Y014501D01*
X004845Y014501D01*
X004893Y014452D01*
X004893Y014259D01*
X004845Y014210D01*
X004598Y014210D02*
X004598Y014501D01*
X004405Y014501D02*
X004405Y014210D01*
X004304Y014259D02*
X004304Y014355D01*
X004207Y014355D01*
X004110Y014259D02*
X004110Y014452D01*
X004159Y014501D01*
X004255Y014501D01*
X004304Y014452D01*
X004405Y014501D02*
X004598Y014210D01*
X004304Y014259D02*
X004255Y014210D01*
X004159Y014210D01*
X004110Y014259D01*
X011788Y004893D02*
X011740Y004845D01*
X011740Y004700D01*
X012030Y004700D01*
X012030Y004845D01*
X011982Y004893D01*
X011788Y004893D01*
X011740Y004598D02*
X012030Y004598D01*
X011740Y004405D01*
X012030Y004405D01*
X011982Y004304D02*
X011885Y004304D01*
X011885Y004207D01*
X011788Y004110D02*
X011982Y004110D01*
X012030Y004159D01*
X012030Y004255D01*
X011982Y004304D01*
X011788Y004304D02*
X011740Y004255D01*
X011740Y004159D01*
X011788Y004110D01*
X014210Y004223D02*
X014258Y004175D01*
X014307Y004175D01*
X014355Y004223D01*
X014355Y004320D01*
X014404Y004368D01*
X014452Y004368D01*
X014500Y004320D01*
X014500Y004223D01*
X014452Y004175D01*
X014210Y004223D02*
X014210Y004320D01*
X014258Y004368D01*
X014210Y004469D02*
X014210Y004566D01*
X014210Y004518D02*
X014500Y004518D01*
X014500Y004566D02*
X014500Y004469D01*
X014452Y004666D02*
X014500Y004714D01*
X014500Y004811D01*
X014452Y004859D01*
X014355Y004859D01*
X014355Y004762D01*
X014258Y004666D02*
X014452Y004666D01*
X014258Y004666D02*
X014210Y004714D01*
X014210Y004811D01*
X014258Y004859D01*
X014737Y006010D02*
X014640Y006107D01*
X014737Y006204D01*
X014930Y006204D01*
X014979Y006305D02*
X014979Y006498D01*
X014930Y006600D02*
X014930Y006696D01*
X014930Y006648D02*
X014640Y006648D01*
X014640Y006600D02*
X014640Y006696D01*
X014737Y006796D02*
X014737Y006941D01*
X014785Y006990D01*
X014930Y006990D01*
X014882Y007139D02*
X014688Y007139D01*
X014737Y007091D02*
X014737Y007187D01*
X014737Y007287D02*
X014640Y007384D01*
X014930Y007384D01*
X014930Y007287D02*
X014930Y007481D01*
X014930Y007187D02*
X014882Y007139D01*
X014930Y006796D02*
X014737Y006796D01*
X014785Y006204D02*
X014785Y006010D01*
X014737Y006010D02*
X014930Y006010D01*
X015640Y006010D02*
X015640Y006204D01*
X015640Y006107D02*
X015930Y006107D01*
X015979Y006305D02*
X015979Y006498D01*
X015930Y006600D02*
X015930Y006696D01*
X015930Y006648D02*
X015640Y006648D01*
X015640Y006600D02*
X015640Y006696D01*
X015737Y006796D02*
X015737Y006941D01*
X015785Y006990D01*
X015930Y006990D01*
X015882Y007139D02*
X015688Y007139D01*
X015737Y007091D02*
X015737Y007187D01*
X015737Y007287D02*
X015640Y007384D01*
X015930Y007384D01*
X015930Y007287D02*
X015930Y007481D01*
X015930Y007187D02*
X015882Y007139D01*
X015930Y006796D02*
X015737Y006796D01*
X016640Y006793D02*
X016930Y006600D01*
X016979Y006498D02*
X016979Y006305D01*
X016834Y006155D02*
X016834Y006010D01*
X016930Y006010D02*
X016640Y006010D01*
X016640Y006155D01*
X016688Y006204D01*
X016785Y006204D01*
X016834Y006155D01*
X016640Y006600D02*
X016930Y006793D01*
X016882Y006894D02*
X016688Y006894D01*
X016640Y006943D01*
X016640Y007039D01*
X016688Y007088D01*
X016640Y007189D02*
X016640Y007237D01*
X016930Y007237D01*
X016930Y007189D02*
X016930Y007286D01*
X016930Y007385D02*
X016737Y007385D01*
X016834Y007385D02*
X016737Y007482D01*
X016737Y007530D01*
X016882Y007088D02*
X016930Y007039D01*
X016930Y006943D01*
X016882Y006894D01*
X017640Y006943D02*
X017688Y006894D01*
X017882Y006894D01*
X017930Y006943D01*
X017930Y007039D01*
X017882Y007088D01*
X017688Y007088D01*
X017640Y007039D01*
X017640Y006943D01*
X017640Y006793D02*
X017640Y006600D01*
X017930Y006600D01*
X017930Y006793D01*
X017785Y006696D02*
X017785Y006600D01*
X017979Y006498D02*
X017979Y006305D01*
X017834Y006155D02*
X017834Y006010D01*
X017930Y006010D02*
X017640Y006010D01*
X017640Y006155D01*
X017688Y006204D01*
X017785Y006204D01*
X017834Y006155D01*
X017882Y007189D02*
X017688Y007189D01*
X017640Y007237D01*
X017640Y007334D01*
X017688Y007382D01*
X017882Y007382D02*
X017930Y007334D01*
X017930Y007237D01*
X017882Y007189D01*
X013977Y007530D02*
X013977Y007579D01*
X013929Y007627D01*
D12*
X016870Y004521D02*
X016870Y004295D01*
X017020Y004371D01*
X017095Y004371D01*
X017171Y004295D01*
X017171Y004145D01*
X017095Y004070D01*
X016945Y004070D01*
X016870Y004145D01*
X017331Y004145D02*
X017406Y004070D01*
X017556Y004070D01*
X017631Y004145D01*
X017631Y004220D01*
X017556Y004295D01*
X017481Y004295D01*
X017556Y004295D02*
X017631Y004371D01*
X017631Y004446D01*
X017556Y004521D01*
X017406Y004521D01*
X017331Y004446D01*
X017171Y004521D02*
X016870Y004521D01*
X017791Y004295D02*
X017791Y004145D01*
X017866Y004070D01*
X018016Y004070D01*
X018091Y004145D01*
X018091Y004220D01*
X018016Y004295D01*
X017791Y004295D01*
X017941Y004446D01*
X018091Y004521D01*
X018251Y004446D02*
X018251Y004371D01*
X018327Y004295D01*
X018477Y004295D01*
X018552Y004220D01*
X018552Y004145D01*
X018477Y004070D01*
X018327Y004070D01*
X018251Y004145D01*
X018251Y004220D01*
X018327Y004295D01*
X018477Y004295D02*
X018552Y004371D01*
X018552Y004446D01*
X018477Y004521D01*
X018327Y004521D01*
X018251Y004446D01*
X018712Y004295D02*
X018712Y004145D01*
X018787Y004070D01*
X018937Y004070D01*
X019012Y004145D01*
X019012Y004220D01*
X018937Y004295D01*
X018712Y004295D01*
X018862Y004446D01*
X019012Y004521D01*
X008121Y004545D02*
X007820Y004545D01*
X005871Y004545D02*
X005570Y004545D01*
X005720Y004696D02*
X005720Y004395D01*
D13*
X011495Y011095D02*
X011495Y014795D01*
X015195Y014795D01*
X015195Y011095D01*
X011495Y011095D01*
X011639Y014445D02*
X011641Y014473D01*
X011647Y014501D01*
X011656Y014527D01*
X011669Y014552D01*
X011685Y014575D01*
X011704Y014596D01*
X011726Y014613D01*
X011750Y014628D01*
X011776Y014639D01*
X011803Y014647D01*
X011831Y014651D01*
X011859Y014651D01*
X011887Y014647D01*
X011914Y014639D01*
X011940Y014628D01*
X011964Y014613D01*
X011986Y014596D01*
X012005Y014575D01*
X012021Y014552D01*
X012034Y014527D01*
X012043Y014501D01*
X012049Y014473D01*
X012051Y014445D01*
X012049Y014417D01*
X012043Y014389D01*
X012034Y014363D01*
X012021Y014338D01*
X012005Y014315D01*
X011986Y014294D01*
X011964Y014277D01*
X011940Y014262D01*
X011914Y014251D01*
X011887Y014243D01*
X011859Y014239D01*
X011831Y014239D01*
X011803Y014243D01*
X011776Y014251D01*
X011750Y014262D01*
X011726Y014277D01*
X011704Y014294D01*
X011685Y014315D01*
X011669Y014338D01*
X011656Y014363D01*
X011647Y014389D01*
X011641Y014417D01*
X011639Y014445D01*
D14*
X009898Y021535D02*
X009758Y021535D01*
X009688Y021605D01*
X009968Y021886D01*
X009968Y021605D01*
X009898Y021535D01*
X009688Y021605D02*
X009688Y021886D01*
X009758Y021956D01*
X009898Y021956D01*
X009968Y021886D01*
X009528Y021605D02*
X009528Y021535D01*
X009458Y021535D01*
X009458Y021605D01*
X009528Y021605D01*
X009278Y021535D02*
X008998Y021535D01*
X009138Y021535D02*
X009138Y021956D01*
X008998Y021816D01*
X008817Y021956D02*
X008817Y021675D01*
X008677Y021535D01*
X008537Y021675D01*
X008537Y021956D01*
X007897Y021956D02*
X007897Y021535D01*
X007687Y021535D01*
X007616Y021605D01*
X007616Y021745D01*
X007687Y021816D01*
X007897Y021816D01*
X007436Y021745D02*
X007436Y021535D01*
X007226Y021535D01*
X007156Y021605D01*
X007226Y021675D01*
X007436Y021675D01*
X007436Y021745D02*
X007366Y021816D01*
X007226Y021816D01*
X006976Y021816D02*
X006976Y021535D01*
X006766Y021535D01*
X006696Y021605D01*
X006696Y021816D01*
X006516Y021886D02*
X006516Y021605D01*
X006445Y021535D01*
X006305Y021535D01*
X006235Y021605D01*
X006235Y021886D01*
X006305Y021956D01*
X006445Y021956D01*
X006516Y021886D01*
X006375Y021675D02*
X006516Y021535D01*
M02*
